<svg xmlns="http://www.w3.org/2000/svg" xmlns:xlink="http://www.w3.org/1999/xlink" aria-hidden="true" focusable="false" width="1em" height="1em" style="-ms-transform: rotate(360deg); -webkit-transform: rotate(360deg); transform: rotate(360deg);" preserveAspectRatio="xMidYMid meet" viewBox="0 0 24 24"><path d="M12.165 8.145l5.11 5.11L21 9.53L12.163.693L8.969 3.887l-.531.535l-5.107 5.107l3.725 3.725zm-2.134-3.194l.532-.535l1.599-1.599l.002.002l.003-.003L13.77 4.42l-.002.002l5.11 5.11l-1.604 1.603l-5.11-5.11l-5.11 5.11l-1.603-1.603z" fill="white"/><path d="M15.888 14.785l-3.191-3.191l-.534-.53l-3.194 3.194l-.528.532l-5.11 5.11l3.725 3.725l5.11-5.11l5.11 5.11l3.725-3.725l-5.113-5.113zm2.991 5.115l-1.604 1.603l-5.11-5.11l-5.11 5.11L5.452 19.9l6.714-6.718l1.609 1.609l-.002.002z" fill="white"/></svg>