<svg width="17" height="14" viewBox="0 0 17 14" fill="none" xmlns="http://www.w3.org/2000/svg">
<path d="M0.0981792 3.20221C-0.407207 1.58368 1.17374 0.385365 1.76574 0L17 0.0229508V13.6793C17 13.8359 12.5302 14.7391 10.4204 12.5834C8.73265 10.8589 7.27371 10.8132 6.72541 10.8132C5.72418 10.8212 3.65734 10.4013 3.39988 8.65754C3.07805 6.47782 2.42248 6.08041 2.04106 5.75526C1.63671 5.41057 0.729911 5.22538 0.0981792 3.20221Z" fill="#E0F7FB"/>
<path d="M0.132586 2.96567C-0.371771 1.46157 0.683735 0.358118 1.27453 0L17 0.0111912V12.702C17 12.8475 12.5393 13.6868 10.4338 11.6836C8.74948 10.081 7.29351 10.0385 6.74633 10.0385C5.74713 10.046 3.6845 9.65576 3.42756 8.03527C3.10639 6.00967 2.45216 5.64036 2.07151 5.3382C1.66799 5.01788 0.763032 4.84579 0.132586 2.96567Z" fill="url(#paint0_linear)"/>
<path d="M3.88568 1.59224C3.49354 0.781646 1.98872 0.313793 2.00006 0H17V6.8394C17 6.91781 13.5318 7.37015 11.8949 6.29056C10.5853 5.42689 9.45326 5.40397 9.02783 5.40397C8.25096 5.40799 6.64727 5.1977 6.44751 4.32438C6.1978 3.23273 5.68913 3.0337 5.39318 2.87086C5.07945 2.69823 4.37584 2.60549 3.88568 1.59224Z" fill="url(#paint1_linear)"/>
<defs>
<linearGradient id="paint0_linear" x1="17" y1="0.022383" x2="9.84627" y2="14.1962" gradientUnits="userSpaceOnUse">
<stop stop-color="#287BF5"/>
<stop offset="1" stop-color="#1EC0D8"/>
</linearGradient>
<linearGradient id="paint1_linear" x1="16.7019" y1="0.111612" x2="9.40056" y2="7.49824" gradientUnits="userSpaceOnUse">
<stop stop-color="#287BF5"/>
<stop offset="1" stop-color="#23A2E5"/>
</linearGradient>
</defs>
</svg>
