<svg width="10" height="9" viewBox="0 0 10 9" fill="none" xmlns="http://www.w3.org/2000/svg">
<path d="M9.94225 1.88363C10.2395 0.931566 9.30956 0.226683 8.96133 0L2.38419e-07 0.0135003V8.04657C2.38419e-07 8.13866 2.6293 8.66995 3.87032 7.40194C4.86315 6.38754 5.72135 6.36062 6.04388 6.36062C6.63284 6.36534 7.84862 6.11835 8.00007 5.09261C8.18938 3.81044 8.57501 3.57667 8.79938 3.38541C9.03723 3.18265 9.57064 3.07372 9.94225 1.88363Z" fill="#E0F7FB"/>
<path d="M9.92201 1.74449C10.2187 0.859737 9.5978 0.210655 9.25028 0L2.38419e-07 0.00658298V7.47168C2.38419e-07 7.55726 2.62394 8.05098 3.86245 6.87263C4.85325 5.92995 5.7097 5.90493 6.03157 5.90493C6.61934 5.90932 7.83265 5.67979 7.98379 4.72658C8.17271 3.53506 8.55756 3.31782 8.78147 3.14008C9.01883 2.95166 9.55116 2.85043 9.92201 1.74449Z" fill="url(#paint0_linear)"/>
<path d="M7.71451 0.936602C7.94518 0.459786 8.83037 0.184582 8.82369 0L0.00020037 0V4.02313C0.00020037 4.06925 2.0403 4.33533 3.00323 3.70029C3.77357 3.19225 4.43946 3.17877 4.68971 3.17877C5.1467 3.18114 6.09004 3.05744 6.20755 2.54373C6.35444 1.90159 6.65365 1.78451 6.82774 1.68872C7.01229 1.58718 7.42617 1.53262 7.71451 0.936602Z" fill="url(#paint1_linear)"/>
<defs>
<linearGradient id="paint0_linear" x1="-2.64683e-07" y1="0.0131663" x2="4.208" y2="8.35063" gradientUnits="userSpaceOnUse">
<stop stop-color="#287BF5"/>
<stop offset="1" stop-color="#1EC0D8"/>
</linearGradient>
<linearGradient id="paint1_linear" x1="0.175575" y1="0.0656534" x2="4.47041" y2="4.41073" gradientUnits="userSpaceOnUse">
<stop stop-color="#287BF5"/>
<stop offset="1" stop-color="#23A2E5"/>
</linearGradient>
</defs>
</svg>
