<svg xmlns="http://www.w3.org/2000/svg" viewBox="0 0 635.652 595.626"><defs><clipPath id="clip-path" transform="translate(-1.941 -2.804)"><path d="M442.612 447.739l29.393 7.018 34.752.159 35.97-9.056 64.446 119.988-8.751 36.213S394.973 616.708 389.549 612.1s-30.88-29.293-34.472-38.918 87.535-125.443 87.535-125.443z" fill="none"/></clipPath><style>.cls-3{fill:#d5dbda}.cls-4{fill:#fff}.cls-5{fill:#efefef}.cls-6{fill:#ffd04d}.cls-7{fill:#00bfd8}.cls-8{opacity:.15}.cls-13,.cls-30,.cls-8{mix-blend-mode:multiply}.cls-9{opacity:.26}.cls-11{fill:#66341b}.cls-12{fill:#723e24}.cls-13{opacity:.3}.cls-14{fill:#e8f6f7}.cls-15{fill:#d0e0e2}.cls-16{fill:#ffe1bd}.cls-17{fill:#f4f4f4}.cls-18{fill:#eaeaea}.cls-19{fill:#3a3a3a}.cls-20{fill:#e2e2e2}.cls-22{fill:#632f00}.cls-23{fill:#e8c5a0}.cls-24{fill:#8c4200}.cls-29{fill:#0c5a71}.cls-30{opacity:.1}.cls-31{fill:#0b0b3a}.cls-32,.cls-35{fill:#ce9006}.cls-32{opacity:.39}.cls-34{fill:#efaf11}.cls-36{fill:#fafeff}.cls-37{fill:#b4eff9}.cls-38{fill:#75d9ef}.cls-39{opacity:.5}.cls-41{fill:#d6d6d6}.cls-42{fill:#525252}.cls-43{fill:#a5a5af}.cls-44{fill:#f1f2f2}.cls-45{fill:#a7a9ac}.cls-47{fill:#e6e7e8}.cls-50{fill:#81553a}.cls-52{fill:#709e3e}.cls-54{fill:#93bc6c}.cls-55{fill:#4c2311}.cls-56{fill:#1a1a47}.cls-60{fill:#c2e0f2}.cls-63{fill:#007d87}.cls-67{fill:#33305b}</style></defs><g style="isolation:isolate"><g id="Layer_1" data-name="Layer 1"><path class="cls-3" d="M186.893 5.481h439.338v259.518H186.893z"/><path class="cls-4" d="M199.087 10.557h414.949v249.366H199.087z"/><path class="cls-5" d="M229.512 22.095H580.78V38.75H229.512z"/><path class="cls-6" d="M242.273 180.558h19.106v47.966h-19.106z"/><path class="cls-7" d="M285.326 138.45h19.106v90.074h-19.106z"/><path class="cls-6" d="M328.38 147.764h19.106v80.76H328.38z"/><path class="cls-7" d="M371.434 102.167h19.106v126.358h-19.106z"/><g class="cls-8"><path class="cls-9" d="M285.326 138.45h8.769v90.074h-8.769z"/></g><g class="cls-8"><path class="cls-9" d="M242.273 180.558h8.769v47.966h-8.769z"/></g><path class="cls-9" d="M371.434 102.167h8.769v126.358h-8.769z" opacity=".62"/><g class="cls-8"><path class="cls-9" d="M328.38 147.764h8.769v80.76h-8.769z"/></g><path class="cls-3" d="M400.65 241.728H229.655V59.649h2.608V239.12H400.65v2.608z"/><path class="cls-3" d="M247.218 158.095l-1.742-1.941 44.731-40.166 41.432 9.001 44.864-49.946 1.941 1.743-45.878 51.074-41.609-9.039-43.739 39.274z"/><path class="cls-3" d="M381.959 84.165l-12.651-12.131 16.332-4.369-3.681 16.5z"/><path class="cls-7" d="M416.842 169.14h16.034v16.034h-16.034z"/><path class="cls-6" d="M416.842 197.233h16.034v16.034h-16.034z"/><path class="cls-5" d="M437.294 204.156h50.826v9.112h-50.826zM437.294 176.062h50.826v9.112h-50.826z"/><path class="cls-7" d="M511.139 169.14h16.034v16.034h-16.034z"/><path class="cls-6" d="M511.139 197.233h16.034v16.034h-16.034z"/><path class="cls-5" d="M531.59 204.156h50.826v9.112H531.59zM531.59 176.062h50.826v9.112H531.59zM430.529 70.652h150.252v3.423H430.529zM418.733 78.941H580.78v3.423H418.733zM418.733 87.23H580.78v3.423H418.733zM418.733 95.518H580.78v3.423H418.733zM418.733 103.807H580.78v3.423H418.733zM418.733 112.096H580.78v3.423H418.733zM418.733 120.385H580.78v3.423H418.733zM418.733 128.674H580.78v3.423H418.733zM441.856 136.962h138.925v3.423H441.856z"/><path class="cls-11" d="M637.593 6.186a3.383 3.383 0 01-3.383 3.383H182.795a3.382 3.382 0 01-3.382-3.383 3.382 3.382 0 013.382-3.386H634.21a3.383 3.383 0 013.383 3.383zM637.593 269.9a3.383 3.383 0 01-3.383 3.383H182.795a3.382 3.382 0 01-3.382-3.383 3.382 3.382 0 013.382-3.383H634.21a3.383 3.383 0 013.383 3.383z" transform="translate(-1.941 -2.804)"/><path class="cls-12" d="M114 567.646l2.45-130.968h-8.712l2.449 130.968a1.958 1.958 0 103.813 0zM33.931 552.326L84.53 431.5l-8.1-3.215-46.044 122.634a2.242 2.242 0 00.885 2.939 2.242 2.242 0 002.66-1.532zM190.25 552.326L139.65 431.5l8.1-3.215 46.046 122.632a1.958 1.958 0 11-3.546 1.409z" transform="translate(-1.941 -2.804)"/><g class="cls-13"><path d="M75.026 432.032l5.152 2.045-47.56 119.682a2.779 2.779 0 001.313-1.434L84.53 431.5l-8.1-3.215zM107.8 440.125h6.492l-2.429 129.9a1.424 1.424 0 00.229.03 2.242 2.242 0 001.908-2.409l2.45-130.968h-8.712zM193.794 550.919l-46.046-122.632-8.1 3.215.93 2.222 5.011-1.989 45.781 121.928a1.726 1.726 0 001.536.2 2.242 2.242 0 00.888-2.944z" transform="translate(-1.941 -2.804)"/></g><path class="cls-14" d="M172.121 442.866c-8.836 7.19-21.93 13.807-55.186 14.462-43.747.862-66.649-4.1-79.079-26.664-20.756-37.679 5.218-159.407 46.192-132.441 34.252 22.542 41.113 94.5 45.64 104.45s63.875 22.746 42.433 40.193z" transform="translate(-1.941 -2.804)"/><path class="cls-15" d="M124.518 448.008c-43.747.862-66.648-4.1-79.079-26.664-14.169-25.718-6.564-90.591 12.722-120.612C33.478 323.611 21.954 401.8 37.857 430.663c12.43 22.561 35.331 27.526 79.079 26.664 33.256-.655 46.35-7.272 55.186-14.462 3.009-2.448 4.426-4.8 4.628-7.075-8.867 6.272-22.477 11.632-52.232 12.218z" transform="translate(-1.941 -2.804)"/><path class="cls-16" d="M143.18 160c2.989-8.624 5.749-17.688 10.437-13.11 4.932 4.819 4.537 4.237 2.746 10.923s-15.698 9.441-13.183 2.187z" transform="translate(-1.941 -2.804)"/><path class="cls-16" d="M148.534 147.672c1.486-4.105 3.925-8.794 6.433-10.732s-1.292 4.855-2.19 8.035-5.492 6.15-4.243 2.697z" transform="translate(-1.941 -2.804)"/><path class="cls-17" d="M144.5 194.416c3.514-13.186 5.27-30.42 5.27-30.42l-6.583-4.432s-13.4 27.543-20.641 48.452L85.2 198.427l-4.552-.928L92.8 221.781s35.969 5.237 38.179 4 9.943-17.941 13.521-31.365z" transform="translate(-1.941 -2.804)"/><path class="cls-18" d="M130.978 225.78c-2.21 1.237-38.179-4-38.179-4L80.647 197.5l4.551.928c3.355 1.416 8.791 6.85 13.205 12.623 3.187 4.168 4.943 5.651 9.758 7.457 7.365 2.762 15.191 4.721 18.132 4.931 4.971.331 5.457.574 6.518-.884a3.184 3.184 0 01-1.833 3.225z" transform="translate(-1.941 -2.804)"/><path class="cls-17" d="M43.048 270.814a32.888 32.888 0 011.475 18.971c-2.794 12.574.386 13.418.386 13.418s17.042 10.817 31.216 15.238c10.158 3.161 18.816 2.626 18.575-8.589l-.008-.154-.05-1.967c-.479-25.207 4.777-26.489 6.073-54.715 1.337-28.956-6.4-45.107-14.068-52.112-7.679-6.989-18.159-7.249-37.873-2.589-14.809 3.489-19.687 7.419-19.567 18.377a85.943 85.943 0 001.593 13.489c2.446 13.79 8.284 30.345 12.248 40.633z" transform="translate(-1.941 -2.804)"/><path class="cls-19" d="M78.812 208.8s15.361 50.354 12.288 74.475l-5.659 10.3-6.187-11.228s5.031-48.225-4.6-72.693z" transform="translate(-1.941 -2.804)"/><path class="cls-20" d="M43.048 270.814a32.888 32.888 0 011.475 18.971c-2.794 12.574.386 13.418.386 13.418s17.042 10.817 31.216 15.238l13.244-1.256 5.3-4.166.021-3.322-.05-1.967a98.118 98.118 0 01-20-.521 83.007 83.007 0 01-19.611-4.913 7.643 7.643 0 01-4.822-8.494 109.8 109.8 0 001.834-17.583c-.04-5.55-2.61-14.93-4.711-21.7a43.747 43.747 0 01-1.765-16.041 143.281 143.281 0 00-.015-18.283l-10.5-5.687-5.848 2.179a85.943 85.943 0 001.598 13.494c2.446 13.79 8.284 30.345 12.248 40.633z" transform="translate(-1.941 -2.804)"/><path d="M42.831 324.309c-1.213.2-4.315-5.246-4.315-5.246l1.3-1.727a5.79 5.79 0 012.928-2.052l.211-.065a2.5 2.5 0 012.808.963c.891 1.32 2.265 2.826 3.863 2.768h.028a.36.36 0 00.169.028c1.413.029-5.779 5.133-6.992 5.331z" transform="translate(-1.941 -2.804)" fill="#f4d5b5"/><path class="cls-22" d="M90.673 149.106s1.315 3.674-.673 6.594l-8.128-11 5.669-.052z" transform="translate(-1.941 -2.804)"/><path class="cls-16" d="M46.531 163.657c.359 14.19 12.6 22.414 12.6 22.414l-.818 12.915 8.257 5.352 5.666 3.668 3.252-6.795.446-8.326a4.292 4.292 0 013.408-3.958 15.622 15.622 0 008.052-4.867 5.4 5.4 0 00.514-.636l.019-.011c5.366-7.311 7.4-35.31-10.972-43.259-18.968-8.23-30.794 9.293-30.424 23.503z" transform="translate(-1.941 -2.804)"/><path class="cls-23" d="M67.125 196.592l-.556 7.746 5.666 3.668 3.252-6.795.446-8.326a4.292 4.292 0 013.408-3.958 15.622 15.622 0 008.052-4.867 5.4 5.4 0 00.514-.636A30.519 30.519 0 0176.353 187a10.407 10.407 0 00-9.228 9.592z" transform="translate(-1.941 -2.804)"/><path class="cls-24" d="M66.342 168.031c-.718.294-1.4-.816-1.4-.816s-3.983-8.945-5.354-10.316c-2.449-2.481-8.227-2.252-8.683 5.419-.359 5.941 6.659 18.608 8.814 22.329a1.414 1.414 0 01-.359 1.8 1.766 1.766 0 01-.783.294h-.1a1.369 1.369 0 01-.914-.326c-4.537-3.983-24.516-23.145-8.651-41.165 0 0 12.6.816 14.527 6.888a126.9 126.9 0 013.3 14.331s.354 1.231-.397 1.562z" transform="translate(-1.941 -2.804)"/><path class="cls-24" d="M90.673 149.106s-11.027-8.6-27.773 1.877l-13.713-3.5s-.577-.187-.273-2.241 1.819-22.215 25.839-17.683c13.811 2.606 22.27 12.177 15.92 21.547z" transform="translate(-1.941 -2.804)"/><path d="M79.875 204.514l-.08.66a13.106 13.106 0 01-.983 3.625l-4.158.851-3.622-2.7 4.154-4.83.645.164a9.19 9.19 0 013.985 2.172z" transform="translate(-1.941 -2.804)" fill="#606060"/><path class="cls-20" d="M58.412 192.967a13.2 13.2 0 00-3.98 4.1 52.471 52.471 0 015.1 2.669c2.169 1.324 12.591 8.686 12.591 8.686l3.065-6.294s-10.888-7.511-16.776-9.161zM75.186 202.123s3.647 1.247 4.767 3.971c0 0 1.865-3.574-.518-9.935a16.466 16.466 0 00-3.539-2.567z" transform="translate(-1.941 -2.804)"/><path d="M46.2 315.417a21.682 21.682 0 002.512 2.749c.574.316.672-.356.455-.83s-2.879-2.563-2.967-1.919z" transform="translate(-1.941 -2.804)" fill="#e5bb98"/><path class="cls-22" d="M58.573 186.736h-.1a1.369 1.369 0 01-.914-.326c-4.537-3.983-24.516-23.145-8.651-41.165a18.57 18.57 0 00-.457 5.745s-10.118 16.355 10.122 35.746z" transform="translate(-1.941 -2.804)"/><ellipse cx="66.459" cy="567.88" rx="65.844" ry="5.009" fill="#d8d8d8"/><path class="cls-24" d="M35.869 551.57c.866 3.325.536 4.515.877 6.683.425 2.688 2.894 3.666 4.325 5.873 1.576 2.431 4.051 6.331-5.616 6.527-10.349.207-16.48-.508-14.725-6.359s2.1-8.427 1.978-10.333.005-3.895 1.174-5.04 10.461-3.203 11.987 2.649z" transform="translate(-1.941 -2.804)"/><path class="cls-19" d="M38.055 365.583S21.718 339.51 44.909 303.2c0 0 18.074 8.091 32.547 9.067 11.4.769 17.184-.411 17.184-.411s.96 34.909 1 53.725H38.055zM49.065 441.35c4.469-18.846-14.079-22.165-19.935-8.53-8.284 19.285-7.625 103.99-7.182 116.295.057 1.611.9 1.309 1.8.983 2.639-.952 4.851-1.33 5.9-1.106a35.6 35.6 0 016.092 2.533c1.743-16.76 9.001-91.925 13.325-110.175z" transform="translate(-1.941 -2.804)"/><path class="cls-19" d="M65.743 368.125c1.958-23.412-6.976-41.6-20.971-33.864-5.891 3.253-8.047 9.763-8.837 15.892s-5.127 69.828-6.646 81.338c-3.424 25.949 16.322 18.956 18.464 11.766 5.404-18.157 16.923-62.375 17.99-75.132zM98.712 440.134c.733-17.569-13.961-16.551-19.891-2.9-12.809 29.492.093 92.283 2.723 121.9 2.871-4.767 8.313-6.382 9.591-6.281a4.568 4.568 0 013.2 1.8c-.421-36.333 3.591-95.734 4.377-114.519z" transform="translate(-1.941 -2.804)"/><path class="cls-19" d="M79.48 442.04c2.19 7.173 21.058 15.475 19.087-10.637-.874-11.581-3.2-75.535-3.653-81.7s-1.48-15.176-4.46-16.3c-14.9-5.624-29.348 12.766-25.427 35.915 2.617 15.476 9.909 57.844 14.453 72.722z" transform="translate(-1.941 -2.804)"/><path class="cls-24" d="M94.281 555.182c.782 1.521 4.524 5.037 9.711 7.355s16.172 3.4 10.068 5.441-13.222.8-16.83.226a72.541 72.541 0 00-11.351-.685c-5.609-.038-5.652-.383-4.9-6.708 1.045-8.704 10.779-10.547 13.302-5.629z" transform="translate(-1.941 -2.804)"/><path class="cls-16" d="M41.807 310.22l2.879 4.057a7.515 7.515 0 017.6 3.97c2.437 4.772-6.184 10.748-8.635 8.544S35.87 314.4 35.87 314.4z" transform="translate(-1.941 -2.804)"/><path class="cls-17" d="M20.27 297.35a205.9 205.9 0 0115.955 18.9l1.486-1 5.689-3.87s-11.67-24.44-14.986-36.373a42.424 42.424 0 00-6.869-13.867c.222-.213.429-.424.65-.652 8.459-9.007 15.052-20.621 20.068-27.737a28.584 28.584 0 004.8-11.464 25.711 25.711 0 00.081-8.456c-.716-4.462-2.592-8.572-6.909-9.632a7.666 7.666 0 00-4.743.357A8.6 8.6 0 0031.429 207c-6.594 10.668-25.272 39.546-28.209 46.669a14.972 14.972 0 00-1 3.647 12.46 12.46 0 00-.2 1.25C.886 270.25 12.486 289.5 20.27 297.35z" transform="translate(-1.941 -2.804)"/><path class="cls-18" d="M20.27 297.35a205.9 205.9 0 0115.955 18.9l1.486-1s-8.563-11.931-12.61-16.764c-6.2-7.4-10.561-13.174-14.26-19.971s-5.441-19.9-3.481-23.579c1.944-3.677 12.869-19.924 15.212-23.047 2.344-3.108 21.517-22.238 16.013-27.569a3.87 3.87 0 00-3.092-.763A8.6 8.6 0 0031.429 207c-6.594 10.668-25.272 39.546-28.209 46.669a14.972 14.972 0 00-1 3.647 12.46 12.46 0 00-.2 1.25C.886 270.25 12.486 289.5 20.27 297.35z" transform="translate(-1.941 -2.804)"/><path class="cls-19" d="M50.824 314.5s-2.635 9.294-14.344 14.637c-10.1 4.609 16.173 7.245 16.759 6.22s5.635-17.987 5.635-17.987z" transform="translate(-1.941 -2.804)"/><path class="cls-12" d="M252.078 560.282l2.464-131.773h-8.766l2.464 131.773a1.97 1.97 0 103.838 0zM171.52 544.868L222.43 423.3l-8.147-3.234-46.329 123.386a1.97 1.97 0 103.566 1.416zM328.8 544.868L277.888 423.3l8.148-3.234 46.329 123.385a1.97 1.97 0 11-3.565 1.417z" transform="translate(-1.941 -2.804)"/><g class="cls-13"><path d="M212.868 423.835l5.184 2.058L170.2 546.31a2.8 2.8 0 001.321-1.443L222.43 423.3l-8.147-3.234zM245.841 431.978h6.532l-2.444 130.694a1.439 1.439 0 00.231.03 2.256 2.256 0 001.918-2.42l2.464-131.773h-8.766zM332.365 543.452l-46.329-123.385-8.148 3.234.937 2.235 5.041-2 46.064 122.676a1.735 1.735 0 001.545.2 2.255 2.255 0 00.89-2.96z" transform="translate(-1.941 -2.804)"/></g><path class="cls-14" d="M313.974 383.42c0 50.54-28.571 62.642-63.815 62.642s-63.815-12.1-63.815-62.642 28.571-99.385 63.815-99.385 63.815 48.845 63.815 99.385z" transform="translate(-1.941 -2.804)"/><path class="cls-15" d="M255.283 434.684c-35.244 0-63.814-12.1-63.814-62.642a138.246 138.246 0 019.27-49.681c-9 17.454-14.394 39.1-14.394 61.06 0 50.54 28.571 62.642 63.815 62.642 27.632 0 51.159-7.442 60.034-35.012-11.12 18.309-31.547 23.633-54.911 23.633z" transform="translate(-1.941 -2.804)"/><path d="M219.566 370.179s-8.2 17.47-9.869 29.144c-2.438 17.044 1.164 24.427 22.94 25.107s28.124-3.563 38.508-3.563 22.453-19.686 9.081-43.061z" transform="translate(-1.941 -2.804)" fill="#09424c"/><path class="cls-16" d="M228.919 513.3l-.4 6.611s-6.435 18.96-6.752 23.742c-.553 8.337 3.128 17.67 6.706 17.617 4.079-.06 9.7-5.288 12.206-15.735 1.7-7.075-1.052-20.932-.074-24.184s2.951-9.556 2.951-9.556z" transform="translate(-1.941 -2.804)"/><path class="cls-24" d="M241.191 541.473c-2.82 2.846-8.556 8.836-10.833 8.721-2.363-.119-6.5-7.38-7.877-10.384a26.132 26.132 0 00-.712 3.839c-.553 8.337 3.128 17.67 6.706 17.617 4.079-.06 9.7-5.288 12.206-15.735a22.611 22.611 0 00.51-4.058z" transform="translate(-1.941 -2.804)"/><path class="cls-29" d="M243.235 516.518s26.018-82.15 29.266-92.257 5.868-29.325-9.192-32.677c-13.007-2.895-18.463 16.5-20.842 28.448s-14.362 91.684-14.362 91.684-1.414 4.484 6.352 5.767 8.778-.965 8.778-.965z" transform="translate(-1.941 -2.804)"/><path d="M258.736 391.5c-5.65 7.724-8.516 22.134-10.115 30.157-2.379 11.944-14.241 93.314-14.241 93.314s2 1.025 6.327 2.96a15.2 15.2 0 00-2.068-.007c-8.373.6-10.413-4.575-10.413-4.575s11.862-81.371 14.241-93.314c2.079-10.435 6.508-26.564 16.269-28.535z" transform="translate(-1.941 -2.804)"/><path class="cls-16" d="M196.293 510.136l-.866 6.566S187.66 535.156 187 539.9c-1.144 8.277 1.863 17.848 5.436 18.05 4.073.23 10.052-4.585 13.294-14.827 2.2-6.937.439-20.954 1.647-24.129s3.623-9.318 3.623-9.318z" transform="translate(-1.941 -2.804)"/><path class="cls-24" d="M206.53 539.114c-3.015 2.638-9.163 8.205-11.425 7.929-2.348-.287-5.963-7.824-7.119-10.918A26.112 26.112 0 00187 539.9c-1.144 8.277 1.863 17.848 5.436 18.05 4.073.23 10.052-4.585 13.294-14.827a22.6 22.6 0 00.8-4.009z" transform="translate(-1.941 -2.804)"/><path class="cls-29" d="M210.344 514.367s31.794-80.092 35.753-89.942 7.939-28.833-6.845-33.248c-12.768-3.813-19.59 15.149-22.812 26.894s-20.846 90.43-20.846 90.43-1.73 4.372 5.926 6.2 8.824-.334 8.824-.334z" transform="translate(-1.941 -2.804)"/><path d="M234.7 390.764c-6.185 7.3-10.068 21.472-12.234 29.362-3.223 11.744-20.841 92.065-20.841 92.065s1.921 1.164 6.1 3.4a15.243 15.243 0 00-2.062-.154c-8.395 0-10.062-5.3-10.062-5.3s17.618-80.321 20.841-92.065c2.814-10.262 8.378-26.032 18.258-27.308z" transform="translate(-1.941 -2.804)"/><path id="_Path_" data-name="&lt;Path&gt;" class="cls-31" d="M233.595 204.075s2.881-12.376 23.509-8.4c19.69 3.794 18.448 31.262 20.739 38.733a173.676 173.676 0 007.041 17.57 1.5 1.5 0 01-.885 2.048c-7.277 2.419-38.169 11.481-59.238-1.158a10.01 10.01 0 01-4.2-4.757 7.089 7.089 0 01-.568-2.938c.143-3.293 2-7.3.573-16.9s.284-24.485 13.029-24.198z" transform="translate(-1.941 -2.804)"/><path id="_Path_2" data-name="&lt;Path&gt;" class="cls-16" d="M227.533 230.614a11.268 11.268 0 00-1.67 8.688 5.836 5.836 0 005.792 5.257l.652-5.4-1.432-9.5z" transform="translate(-1.941 -2.804)"/><path id="_Path_3" data-name="&lt;Path&gt;" class="cls-16" d="M273.6 230.614a11.268 11.268 0 011.671 8.688 5.836 5.836 0 01-5.793 5.257l-.651-5.4 1.432-9.5z" transform="translate(-1.941 -2.804)"/><path id="_Path_4" data-name="&lt;Path&gt;" class="cls-6" d="M276.943 335.721a78.773 78.773 0 00.355 14.767c.6 6.278 2.7 29.276 2.7 29.276a76.653 76.653 0 01-13.037 3.506c-11.055 2.108-30.094-3.552-47.758-9.555 0 0 6.485-15.929 6.577-29.035a82.138 82.138 0 00-.115-5.522 116.454 116.454 0 00-1.89-12.075q-.275-1.495-.55-3.093c-.664-3.838-1.329-8.053-1.8-12.349a96.141 96.141 0 01-.641-12.876c-1.6-11.525 1.925-22.866 1.925-22.866s14.56-6.083 20.712-6.908c0 0 10.906-2.5 18.57.046 10.024 3.322 15.511 5.258 20.013 7.721.481.264 3.4 8.81 2.12 16.336-1.879 11.032-4.651 26.165-6.14 35.261-.595 3.632-.984 6.302-1.041 7.366z" transform="translate(-1.941 -2.804)"/><path id="_Path_5" data-name="&lt;Path&gt;" class="cls-32" d="M280 382.459a44.345 44.345 0 00-13.037.811c-3.07-7.916-2.105-36.664-2.105-36.664-8.592-1.432-21.663-6.587-21.663-6.587-3.437 1.627-14.068 3.952-17.413 4.663a82.138 82.138 0 00-.115-5.522 116.454 116.454 0 00-1.89-12.075c4.021-2.807 11.49 3.391 11.49 3.391l37.713-5.922a30.279 30.279 0 015.006 3.8c-.6 3.632-.985 6.3-1.043 7.366a78.773 78.773 0 00.355 14.767c.595 6.279 2.702 31.972 2.702 31.972z" transform="translate(-1.941 -2.804)"/><path id="_Path_6" data-name="&lt;Path&gt;" class="cls-16" d="M271.97 224.405c0 5.533-1.111 18.4-4.582 26.921a23.963 23.963 0 01-9.76 11.662c-.046 2.211-.092 5.121 1.455 5.362.447.985 1.008 1.237.71 2.784-1.043 5.5-7.446 11.582-9.016 13.105s-2.555 0-2.555 0a35.239 35.239 0 01-4.674-6.908 44.358 44.358 0 01-1.8-3.792 4.763 4.763 0 01.435-4.376c1.7-.206 1.077-3.849.939-5.8-3.276-2.337-6.369-6.335-8.672-11.032-4.617-9.428-4.869-21.411-4.869-27.929a21.193 21.193 0 1142.389.003z" transform="translate(-1.941 -2.804)"/><path id="_Path_7" data-name="&lt;Path&gt;" class="cls-23" d="M257.341 263.092c-1.248.458-6.347 2.44-7.331 4.582-1.111 2.463-1.741 6.449-2.784 7.572a12.347 12.347 0 01-3.677 2.085 44.358 44.358 0 01-1.8-3.792 4.763 4.763 0 01.435-4.376c1.7-.206 1.077-3.849.939-5.8a17.383 17.383 0 006.7 1.226 39.525 39.525 0 007.518-1.497z" transform="translate(-1.941 -2.804)"/><path id="_Path_8" data-name="&lt;Path&gt;" class="cls-16" d="M265.087 319.146a42.142 42.142 0 014.439-.644c1.074 0-2 9.63-2 9.63a5.04 5.04 0 00-2.434-1.4c-1.324-.215-.823-7.482-.823-7.482z" transform="translate(-1.941 -2.804)"/><path id="_Path_9" data-name="&lt;Path&gt;" d="M282.01 276.755s9.584 4.926 9.011 12.373-11.79 48.121-13.721 53.472-50.813-10.883-50.813-10.883 1.528-6.537 2.864-8.329c0 0 33.413 3.556 37.8 5.274 0 0 6.778-32.268 8.878-37.995s5.981-13.912 5.981-13.912z" transform="translate(-1.941 -2.804)" fill="#d69507"/><path id="_Path_10" data-name="&lt;Path&gt;" class="cls-34" d="M265.762 327.416c-5.075 2.864-43.67 18.9-47.244 17.905s-7.882-4.158-8.455-13.609c-.5-8.386 4.353-41.436 5.487-49.088a6.771 6.771 0 011.444-3.3 8.589 8.589 0 01.744-.71 19.866 19.866 0 014.972-2.715c.481 1.088.355 5.556.951 13.4a9.4 9.4 0 01-.172 2.658c-.962 4.571-2.131 10.528-2.062 13.69a5.077 5.077 0 00.035.573c.332 3.322 2.8 9.623 2.841 12.281.08 6.278.057 7.16.046 7.263 1.386-.229 6.2-1.088 12.075-2.131 12.132-2.177 28.766-5.167 28.766-5.167 1.442 3.073.572 8.95.572 8.95z" transform="translate(-1.941 -2.804)"/><path id="_Path_11" data-name="&lt;Path&gt;" class="cls-31" d="M225.289 232.714s6.705-1.132 10.574-6.158a35.033 35.033 0 004.695-9.332s2.344 5.036 10.22 8.616a81.466 81.466 0 0024.4 6.874s.521-18.33-5.493-25.776-21.623-11.742-32.22-5.3-12.176 31.076-12.176 31.076z" transform="translate(-1.941 -2.804)"/><path id="_Path_12" data-name="&lt;Path&gt;" class="cls-35" d="M242.253 269.028s1.1 9.88 5.969 15.214c0 0-1.615-.533-4.614 3.079a.775.775 0 01-1.35-.319c-.931-4.017-3.982-13.852-2.285-17.272a2.413 2.413 0 012.28-.702z" transform="translate(-1.941 -2.804)"/><path id="_Path_13" data-name="&lt;Path&gt;" class="cls-35" d="M258.933 268.3a65.061 65.061 0 01-2.975 8.459 30 30 0 01-5.424 7.7s3.751.695 5.486 3.165a.611.611 0 001.067-.134c1.127-2.173 1.77-4.141 3.025-8.616 1.429-5.1 1.487-7.9 1.32-10.009a2.17 2.17 0 00-2.499-.565z" transform="translate(-1.941 -2.804)"/><path id="_Path_14" data-name="&lt;Path&gt;" class="cls-32" d="M221.611 328.413c-3.91-3.335.756-9.7.424-11.926s-.321-2.6-.607-4.845a18.693 18.693 0 01.035-5.419c.332 3.322 2.8 9.623 2.841 12.281.08 6.278.057 7.16.046 7.263 1.386-.229 14.33-2.548 20.207-3.591 1.373.724-20.314 8.482-22.946 6.237z" transform="translate(-1.941 -2.804)"/><path id="_Path_15" data-name="&lt;Path&gt;" class="cls-16" d="M228.492 325.045l-4.138.727a66.221 66.221 0 00-7.752-.217 24.842 24.842 0 00-5.93 1.265.813.813 0 01-.988-.68 11.818 11.818 0 01-.5-4.237 15.413 15.413 0 011.079-4.086 1.668 1.668 0 01.989-.907c1.537-.542 3.367-.484 6.046-.256a7.782 7.782 0 016.086 3.137l1.7 2.023a3.842 3.842 0 002.136 1.263l2.046.426s-.227.364-.42.743a7.142 7.142 0 00-.354.799z" transform="translate(-1.941 -2.804)"/><path class="cls-36" d="M143.499 362.455l1.917-37.023h-18.122l1.916 37.023h14.289z"/><path class="cls-37" d="M130.836 360.716l-1.682-33.545h14.402l-1.683 33.545h-11.037z"/><path class="cls-38" d="M129.706 335.375l1.13 25.341h11.037l1.131-25.341h-13.298z"/><g class="cls-39"><path class="cls-4" d="M133.942 359.9h3.012l-1.78-26.43c-.365-3.194-3.35-3.368-2.88.273z" transform="translate(-1.941 -2.804)"/></g><path fill="#282c2d" d="M85.266 367.519h83.964v5.258H85.266z"/><path class="cls-41" d="M86.08 362.294h76.057v4.218H86.08z"/><path class="cls-42" d="M82.127 365.507h83.964v2.013H82.127z"/><path class="cls-43" d="M87.642 363.912h72.933v.435H87.642zM87.642 364.855h72.933v.435H87.642zM87.642 362.926h72.933v.435H87.642z"/><path class="cls-44" d="M464.303 363.184h34.675v8.604h-34.675z"/><path class="cls-45" d="M488.036 363.184h10.943v8.604h-10.943z"/><path class="cls-45" d="M462.162 363.184h34.675v.988h-34.675zM462.162 370.8h34.675v.988h-34.675z"/><path fill="#383838" d="M488.977 363.184h45.249v8.604h-45.249z"/><path class="cls-45" d="M493.841 365.185h24.208v4.603h-24.208z"/><path class="cls-47" d="M495.145 365.432h21.6v4.107h-21.6z"/><ellipse class="cls-45" cx="527.912" cy="367.49" rx="2.828" ry="2.305"/><path class="cls-45" d="M466.366 364.75h19.776v.87h-19.776zM466.366 368.1h19.776v.869h-19.776zM466.366 369.353h19.776v.869h-19.776zM472.566 366.674h12.322v.869h-12.322zM466.366 366.674h5.21v.869h-5.21z"/><path class="cls-44" d="M457.774 354.784h34.675v8.604h-34.675z"/><path class="cls-45" d="M481.506 354.784h10.943v8.604h-10.943z"/><path class="cls-45" d="M455.633 354.784h34.675v.989h-34.675zM455.633 362.4h34.675v.988h-34.675z"/><path fill="#58595b" d="M482.448 354.784h45.249v8.604h-45.249z"/><path class="cls-45" d="M487.312 356.785h24.208v4.603h-24.208z"/><path class="cls-47" d="M488.616 357.033h21.6v4.107h-21.6z"/><ellipse class="cls-45" cx="521.383" cy="359.091" rx="2.828" ry="2.305"/><path class="cls-45" d="M459.838 356.35h19.776v.869h-19.776zM459.838 359.7h19.776v.869h-19.776zM459.838 360.954h19.776v.87h-19.776zM466.036 358.275h12.322v.869h-12.322zM459.838 358.275h5.21v.869h-5.21z"/><path class="cls-44" d="M464.303 346.385h34.675v8.604h-34.675z"/><path class="cls-45" d="M488.036 346.385h10.943v8.604h-10.943z"/><path class="cls-45" d="M462.162 346.385h34.675v.988h-34.675zM462.162 354.001h34.675v.988h-34.675z"/><path fill="#594a42" d="M488.977 346.385h45.249v8.604h-45.249z"/><path class="cls-45" d="M493.841 348.386h24.208v4.603h-24.208z"/><path class="cls-47" d="M495.145 348.634h21.6v4.107h-21.6z"/><ellipse class="cls-45" cx="527.912" cy="350.691" rx="2.828" ry="2.306"/><path class="cls-45" d="M466.366 347.952h19.776v.869h-19.776zM466.366 351.301h19.776v.87h-19.776zM466.366 352.554h19.776v.87h-19.776zM472.566 349.875h12.322v.869h-12.322zM466.366 349.875h5.21v.869h-5.21z"/><path class="cls-36" d="M537.221 371.557l1.917-28.481h-18.122l1.916 28.481h14.289z"/><path class="cls-37" d="M524.558 369.818l-1.683-25.003h14.403l-1.683 25.003h-11.037z"/><path class="cls-38" d="M523.427 353.02l1.131 16.798h11.037l1.131-16.798h-13.299z"/><g class="cls-39"><path class="cls-4" d="M527.663 369h3.012l-1.78-17.888c-.365-3.194-3.351-3.368-2.88.274z" transform="translate(-1.941 -2.804)"/></g><path class="cls-50" d="M173.177 345.43a17.381 17.381 0 0010.918 14.091.09.09 0 00.069-.165c-5.759-2.712-10.028-7.455-10.834-13.927-.012-.1-.165-.1-.153 0z" transform="translate(-1.941 -2.804)"/><path class="cls-50" d="M183.591 335.87a21.1 21.1 0 01-3.924 22.879.094.094 0 00.134.134 20.723 20.723 0 003.91-23.082c-.036-.082-.155-.011-.12.07zM200.231 339.44c3.1 3.941 1.36 8.482-.6 12.5-1.731 3.546-5.255 5.213-8.689 6.708a.127.127 0 00.1.232c4.405-1.564 7.709-4.014 9.528-8.362 1.624-3.88 2.655-7.672-.188-11.223-.085-.106-.23.044-.148.148z" transform="translate(-1.941 -2.804)"/><path class="cls-50" d="M198.436 352a8.009 8.009 0 007.672-3.138.1.1 0 00-.151-.116 8.906 8.906 0 01-7.5 3.121.068.068 0 00-.018.133zM190.411 337.211c-.482 4.25-1.646 11.565-5.946 13.661a.1.1 0 00.077.183c4.538-1.685 5.629-9.8 6.029-13.844.01-.1-.148-.1-.159 0zM165.356 343.182a9.626 9.626 0 009.949 8.361.065.065 0 000-.13 9.856 9.856 0 01-9.809-8.269c-.016-.092-.153-.052-.139.038z" transform="translate(-1.941 -2.804)"/><path class="cls-6" d="M205.468 354.688h-35.947s-2.915 7.02-2.915 8.755 3.971 5.286 8.246 5.286h25.285c4.275 0 8.246-3.552 8.246-5.286s-2.915-8.755-2.915-8.755z" transform="translate(-1.941 -2.804)"/><path class="cls-34" d="M199.705 367.731h-28.304l.99-1.806h26.325l.989 1.806z"/><path class="cls-34" d="M177.533 363.443c0-1.734 2.914-8.755 2.914-8.755h-10.926s-2.915 7.02-2.915 8.755 3.971 5.286 8.246 5.286h10.927c-4.279 0-8.246-3.552-8.246-5.286z" transform="translate(-1.941 -2.804)"/><path style="mix-blend-mode:multiply" opacity=".55" fill="#efaf11" d="M172.391 365.925l-.989 1.806h10.927l.989-1.806h-10.927z"/><path class="cls-52" d="M186.15 341.622c.817-.639 4.038-1.781 6.189-.423a9.258 9.258 0 014.472 7.255 22.818 22.818 0 01-5.942.568c-6.729-.528-6.235-6.215-4.719-7.4zM202.531 338.041c.543-.466 2.726-1.356 4.252-.489a6.385 6.385 0 013.313 4.857 15.74 15.74 0 01-4.076.581c-4.654-.149-4.496-4.083-3.489-4.949zM201.055 335.72a3.023 3.023 0 00-2.927.216 4.424 4.424 0 00-1.6 3.726 10.713 10.713 0 002.821-.131c3.112-.702 2.496-3.354 1.706-3.811zM169.087 339.06a4.058 4.058 0 00-2.28-.346 3.088 3.088 0 00-2.317 4.128 2.772 2.772 0 002.384 1.4c1.837.231 4.038-1.207 5.868-1.8a7.827 7.827 0 00-3.655-3.382zM173.861 343.794a2.464 2.464 0 00-1.339 2.033 2.232 2.232 0 002.249 1.8c1.053.05 4.813-.978 6.416-.155-2.787-5.283-5.606-4.766-7.326-3.678zM205.561 345.636a2.174 2.174 0 00-1.325 1.528 1.746 1.746 0 001.34 1.859c.762.2 3.689-.125 4.722.808.002-4.005-3.293-4.867-4.737-4.195zM185.564 350.8c.857-.247 4.1-.529 5.441 1.208 2.45 3.168.344 5.9.072 6.866a20.615 20.615 0 01-5.01-1.407c-5.321-2.512-3.418-6.221-.503-6.667zM173.822 351.366c-.781-.262-3.423-.224-4.517 1.454a7.983 7.983 0 00-.869 6.938 15.936 15.936 0 004.387-1.268c4.598-2.351 2.447-6.637.999-7.124zM182.391 335.544a2.507 2.507 0 011.882 1.4 2.035 2.035 0 01-1.084 2.435c-.823.412-4.244.777-5.2 2.089.126-5.818 2.591-6.324 4.402-5.924z" transform="translate(-1.941 -2.804)"/><g opacity=".62"><path class="cls-54" d="M164.334 341.217a17.071 17.071 0 018.308 1.446c.044.019.082-.044.038-.065a16.11 16.11 0 00-8.346-1.443c-.039 0-.04.065 0 .062zM165.327 340.555a8.053 8.053 0 016.354.65.037.037 0 00.037-.064 7.367 7.367 0 00-6.407-.642.029.029 0 00.015.055zM164.852 341.584c.9 1.985 4.154 1.713 5.868 1.261a.056.056 0 00-.03-.108c-1.666.412-4.886.726-5.78-1.187-.019-.04-.076-.005-.059.034zM173.327 344.577a5.761 5.761 0 017.315 2.489.031.031 0 00.054-.031 5.677 5.677 0 00-7.392-2.514.031.031 0 00.024.057z" transform="translate(-1.941 -2.804)"/><path class="cls-54" d="M173.682 344.94a22.99 22.99 0 016.561 1.822c.022.01.042-.022.019-.033a19.074 19.074 0 00-6.581-1.852c-.041 0-.04.059 0 .063zM172.956 345.554a12.04 12.04 0 007 1.59c.059-.005.06-.1 0-.093a13.092 13.092 0 01-6.978-1.538.024.024 0 00-.024.041zM178.2 341.213a13.083 13.083 0 015.016-4.7.053.053 0 00-.054-.092 11.417 11.417 0 00-5.019 4.76.032.032 0 00.056.033zM180.342 340.2a7.456 7.456 0 003.91-3.471.043.043 0 00-.074-.043 8.161 8.161 0 01-3.851 3.461c-.033.014-.019.068.015.054zM178.253 339.8a5.147 5.147 0 014.7-3.8.047.047 0 000-.093 5.066 5.066 0 00-4.772 3.878.035.035 0 00.068.019zM196.9 339.734a9.964 9.964 0 013.713-3.472.053.053 0 00-.054-.092 8.282 8.282 0 00-3.715 3.531.032.032 0 00.056.033zM198.478 338.985a5.442 5.442 0 002.9-2.571.043.043 0 00-.074-.043 6.151 6.151 0 01-2.842 2.56c-.033.014-.019.068.015.054z" transform="translate(-1.941 -2.804)"/><path class="cls-54" d="M196.938 338.688a3.82 3.82 0 013.473-2.806.047.047 0 000-.093 3.741 3.741 0 00-3.541 2.88.035.035 0 00.068.019zM168.715 359.256a23.958 23.958 0 016.036-7.4.039.039 0 00-.046-.06 20.021 20.021 0 00-6.045 7.43c-.018.037.037.07.056.033z" transform="translate(-1.941 -2.804)"/><path class="cls-54" d="M168.4 359.369a7 7 0 015.568-7.911.042.042 0 00-.022-.081 6.982 6.982 0 00-5.622 8.013c.007.051.084.029.077-.021zM169.04 359.191a6.749 6.749 0 006.187-6.35c0-.046-.064-.043-.069 0a6.851 6.851 0 01-6.118 6.274c-.048.005-.049.082 0 .077zM184.4 351.483a9.91 9.91 0 015.612 6.832.032.032 0 00.063-.017 9.629 9.629 0 00-5.645-6.865c-.033-.015-.063.034-.029.05z" transform="translate(-1.941 -2.804)"/><path class="cls-54" d="M184.782 351.64c3.1.461 6.567 1.547 6.43 5.348a.042.042 0 00.084 0c.3-3.84-3.4-4.98-6.5-5.41-.041-.006-.059.056-.017.063zM184.618 352.162c-.634 2.909 2.269 4.539 4.583 5.357a.031.031 0 00.024-.057c-2.154-1-5.162-2.339-4.54-5.282.009-.043-.057-.062-.067-.018zM185.944 342.718c.066 4.223 6.209 5.547 9.5 5.544a.03.03 0 000-.06c-3.287-.118-9.29-1.28-9.466-5.484a.017.017 0 00-.034 0z" transform="translate(-1.941 -2.804)"/><path class="cls-54" d="M186.758 343.233a43.446 43.446 0 009.324 5.037c.044.017.063-.054.02-.071a45.646 45.646 0 01-9.321-5c-.023-.016-.045.022-.022.038zM186.831 342.567a15.963 15.963 0 019.372 5.52c.043.05.112-.022.072-.072a15.3 15.3 0 00-9.428-5.5c-.036-.006-.052.049-.015.055z" transform="translate(-1.941 -2.804)"/><path class="cls-54" d="M187.23 341.554c4.67-.266 8.666 1.493 9.18 6.616a.035.035 0 00.069 0 6.76 6.76 0 00-2.5-5.186c-1.952-1.578-4.356-1.66-6.754-1.491-.039 0-.04.064 0 .062zM202.064 339.011c.334 3.02 4.83 3.6 7.209 3.4a.03.03 0 000-.06c-2.385.077-6.733-.336-7.176-3.343a.017.017 0 00-.033 0z" transform="translate(-1.941 -2.804)"/><path class="cls-54" d="M202.684 339.335a31.915 31.915 0 007.051 3.047.037.037 0 00.02-.071 34.222 34.222 0 01-7.048-3.014.022.022 0 00-.022.038zM202.711 338.866a11.792 11.792 0 017.1 3.38.051.051 0 00.072-.072 11.184 11.184 0 00-7.167-3.365c-.037 0-.036.054 0 .058z" transform="translate(-1.941 -2.804)"/><path class="cls-54" d="M202.943 338.131c3.313-.422 6.317.545 7.023 4.16a.035.035 0 00.068-.009 4.69 4.69 0 00-2.091-3.536 6.88 6.88 0 00-5.008-.676.031.031 0 00.008.061zM204.293 347.336a2.335 2.335 0 001.451 1.087c.612.158 1.262.08 1.885.189a7.2 7.2 0 012.575 1.032.006.006 0 00.006-.01 6.942 6.942 0 00-2.962-1.13c-1.111-.135-2.275-.085-2.917-1.189a.021.021 0 00-.037.022zM204.694 346.785a6.889 6.889 0 015.346 2.653.015.015 0 00.023-.018 6.637 6.637 0 00-5.37-2.685.025.025 0 000 .05z" transform="translate(-1.941 -2.804)"/><path class="cls-54" d="M205.318 346.423a3.569 3.569 0 014.658 2.552.028.028 0 00.054-.015 3.572 3.572 0 00-4.726-2.59c-.033.011-.019.064.015.053z" transform="translate(-1.941 -2.804)"/></g><path class="cls-54" d="M165.875 345.034c-.743-.639-3.672-1.781-5.629-.422a10.686 10.686 0 00-4.412 7.545 21.213 21.213 0 005.749.278c6.117-.529 5.67-6.216 4.292-7.401zM199.829 338.647c-.624-.432-2.974-1.078-4.373.126a7.36 7.36 0 00-2.553 5.92 14.679 14.679 0 004.211 0c4.676-.893 3.874-5.243 2.715-6.046zM185.083 331.91a2.175 2.175 0 00-1.326 1.529 1.748 1.748 0 001.34 1.859c.762.2 3.689-.125 4.723.808.001-4.006-3.293-4.868-4.737-4.196zM198.776 351.1c.694-.388 3.469-1.312 5.056-.15 2.893 2.12 1.688 4.842 1.677 5.708a19.783 19.783 0 01-4.724-.108c-5.258-.96-4.461-4.456-2.009-5.45z" transform="translate(-1.941 -2.804)"/><path class="cls-52" d="M156.2 351.908a16.644 16.644 0 003.342-2.712 16.189 16.189 0 015.508-3.545c.052-.02.032-.1-.024-.085-3.752 1.155-5.609 4.42-8.874 6.261a.047.047 0 00.048.082z" transform="translate(-1.941 -2.804)"/><path class="cls-52" d="M156.2 351.5a41.046 41.046 0 012.9-4.239c1.585-1.756 3.458-2.179 5.755-2.1.081 0 .1-.132.02-.145-4.727-.738-6.589 3.03-8.719 6.455a.027.027 0 00.046.027zM157.384 352.111c3.547-.179 9.523-.918 8.536-5.923a.07.07 0 00-.136.018c.018 1.551-.237 3.169-1.555 4.166-1.76 1.332-4.743 1.5-6.846 1.644-.06 0-.061.1 0 .094z" transform="translate(-1.941 -2.804)"/><path class="cls-52" d="M156.569 351.978c1.83-.6 3.776-.961 5.542-1.747 1.741-.775 2.479-2.285 3.355-3.89a.047.047 0 00-.082-.048c-1.177 1.95-2.108 3.364-4.335 4.193-1.474.549-3.015.9-4.5 1.4-.055.019-.032.107.024.088zM184.843 333.017a9.858 9.858 0 014.579 2.63.031.031 0 00.044-.044 8.631 8.631 0 00-4.61-2.632.024.024 0 00-.013.046zM184.168 333.519a1.481 1.481 0 001.133.908c1.079.359 2.172.7 3.273.979a.035.035 0 00.019-.068c-.7-.255-1.4-.473-2.114-.688s-1.92-.374-2.218-1.157c-.022-.058-.115-.034-.094.026z" transform="translate(-1.941 -2.804)"/><path class="cls-52" d="M184.874 332.706a4.289 4.289 0 014.732 2.731c.016.036.072.01.062-.026a4.151 4.151 0 00-4.822-2.8c-.066.012-.037.11.027.1zM193.405 344.538c2.132-1.427 4.183-3 6.229-4.551a.018.018 0 00-.018-.031c-2.2 1.326-4.118 3.091-6.234 4.542-.024.017 0 .056.023.039zM193.959 344.454c2.363-.361 5.048-1.832 5.985-4.148a.032.032 0 00-.058-.024 7.951 7.951 0 01-5.935 4.145c-.018 0-.01.03.007.027zM193.3 344.236a9.341 9.341 0 015.675-4.677.032.032 0 00-.017-.063 8.854 8.854 0 00-5.727 4.7.04.04 0 00.069.04z" transform="translate(-1.941 -2.804)"/><path class="cls-52" d="M194.421 344.54a7.571 7.571 0 004.669-1.168 2.253 2.253 0 001.013-2.734c-.015-.035-.072-.01-.061.026 1.024 3.129-3.59 3.782-5.621 3.833a.021.021 0 000 .043zM193.114 343.8c.691-2.775 2.487-5.034 5.61-4.838.062 0 .059-.088 0-.094-3.128-.355-5.054 2.155-5.681 4.913a.037.037 0 00.071.02zM199.548 351.4a24.819 24.819 0 015.62 5.047c.024.027.062-.012.04-.04a22.875 22.875 0 00-5.637-5.046.023.023 0 00-.023.039z" transform="translate(-1.941 -2.804)"/><path class="cls-52" d="M199.806 351.235a6.694 6.694 0 015.509 4.891.033.033 0 00.064-.018 6.522 6.522 0 00-5.561-4.916c-.028 0-.04.038-.012.043z" transform="translate(-1.941 -2.804)"/><path class="cls-52" d="M200.355 351.074a4.965 4.965 0 013.806 1.1 4.1 4.1 0 011.151 3.224.035.035 0 00.071 0 3.959 3.959 0 00-1.158-3.288 4.944 4.944 0 00-3.869-1.077c-.025 0-.026.043 0 .04zM199.349 351.43c-1.611 2.294 4.161 4.715 5.641 5.031a.041.041 0 00.022-.078c-1.4-.391-7.069-2.654-5.613-4.924.02-.032-.029-.059-.05-.029z" transform="translate(-1.941 -2.804)"/><path class="cls-52" d="M198.706 351.659a1.846 1.846 0 00-.207 2.873c1.247 1.434 3.607 1.941 5.413 1.934a.045.045 0 000-.09 10.283 10.283 0 01-3.273-.642c-1.353-.532-4.2-2.508-1.905-4.028a.027.027 0 00-.028-.047z" transform="translate(-1.941 -2.804)"/><path class="cls-55" d="M103.822 378.908h10.026v197.199h-10.026zM516.41 378.908h10.027v197.199H516.41z"/><path class="cls-55" d="M83.481 373.164h463.295v8.699H83.481z"/><path class="cls-11" d="M78.622 371.425h473.014v3.899H78.622z"/><path class="cls-42" d="M160.802 369.413h99.989v2.012h-99.989z"/><path class="cls-41" d="M258.509 369.62s-39.525-2.34-45.336 1.739c-7.973-3.634-46.209-1.739-46.209-1.739v2.6h91.545v-2.6z" transform="translate(-1.941 -2.804)"/><path class="cls-43" d="M258.509 371.359c-3.791-.3-7.586-.545-11.382-.749s-7.593-.4-11.393-.5-7.6-.135-11.4 0c-1.9.073-3.792.191-5.671.418a27.8 27.8 0 00-2.791.466 8.181 8.181 0 00-2.58.967l-.1.068-.114-.048a14.413 14.413 0 00-2.732-.8 38.228 38.228 0 00-2.849-.435c-1.915-.216-3.843-.333-5.772-.413-3.859-.155-7.727-.142-11.591-.066s-7.73.23-11.592.425q-5.794.263-11.583.666c7.705-.694 15.431-1.182 23.168-1.381 3.868-.1 7.74-.139 11.612-.008 1.936.068 3.871.172 5.8.378.965.11 1.929.238 2.886.422a14.029 14.029 0 012.83.816l-.213.02a8.522 8.522 0 012.736-1.018 28.327 28.327 0 012.835-.455c1.9-.217 3.8-.323 5.706-.384 3.808-.111 7.614-.053 11.417.072 7.612.251 15.204.795 22.773 1.539z" transform="translate(-1.941 -2.804)"/><path class="cls-43" d="M258.509 371.359q-5.674-.153-11.349-.233c-3.782-.074-7.565-.133-11.348-.158s-7.566-.016-11.346.068c-1.89.045-3.779.108-5.664.221a54.96 54.96 0 00-2.818.23 13.974 13.974 0 00-2.737.5l-.059.02-.06-.012a23.556 23.556 0 00-2.822-.3c-.952-.064-1.908-.1-2.863-.133a255.332 255.332 0 00-5.74-.115 656.618 656.618 0 00-11.488.01l-22.978.331 11.485-.391 11.49-.23c3.83-.057 7.661-.1 11.494-.085 1.916.008 3.832.026 5.749.078.958.027 1.917.057 2.876.115a21.877 21.877 0 012.888.3l-.119.008a14.225 14.225 0 012.839-.5 57.7 57.7 0 012.84-.214c1.893-.1 3.786-.153 5.68-.186 3.786-.06 7.571-.041 11.356 0s7.568.127 11.351.235q5.673.189 11.343.441z" transform="translate(-1.941 -2.804)"/><path class="cls-42" d="M304.077 369.413h99.989v2.012h-99.989z"/><path class="cls-41" d="M401.785 369.62s-39.525-2.34-45.336 1.739c-7.973-3.634-46.209-1.739-46.209-1.739v2.6h91.545v-2.6z" transform="translate(-1.941 -2.804)"/><path class="cls-43" d="M401.785 371.359c-3.791-.3-7.586-.545-11.382-.749s-7.593-.4-11.393-.5-7.6-.135-11.4 0c-1.9.073-3.792.191-5.671.418a27.8 27.8 0 00-2.791.466 8.183 8.183 0 00-2.58.967l-.1.068-.114-.048a14.414 14.414 0 00-2.731-.8 38.255 38.255 0 00-2.85-.435c-1.914-.216-3.843-.333-5.772-.413-3.859-.155-7.727-.142-11.591-.066s-7.729.23-11.591.425q-5.8.263-11.584.666c7.705-.694 15.431-1.182 23.168-1.381 3.868-.1 7.74-.139 11.612-.008 1.936.068 3.871.172 5.8.378.965.11 1.929.238 2.887.422a14.039 14.039 0 012.83.816l-.213.02a8.516 8.516 0 012.736-1.018 28.31 28.31 0 012.835-.455c1.9-.217 3.8-.323 5.705-.384 3.808-.111 7.614-.053 11.417.072 7.612.251 15.203.795 22.773 1.539z" transform="translate(-1.941 -2.804)"/><path class="cls-43" d="M401.785 371.359q-5.674-.153-11.349-.233c-3.783-.074-7.566-.133-11.349-.158s-7.566-.016-11.346.068c-1.89.045-3.779.108-5.664.221a54.96 54.96 0 00-2.818.23 13.973 13.973 0 00-2.737.5l-.059.02-.06-.012a23.554 23.554 0 00-2.822-.3c-.952-.064-1.908-.1-2.863-.133a255.213 255.213 0 00-5.74-.115 656.618 656.618 0 00-11.488.01l-22.979.331 11.489-.396 11.49-.23c3.831-.057 7.661-.1 11.494-.085 1.916.008 3.832.026 5.749.078.959.027 1.917.057 2.876.115a21.882 21.882 0 012.888.3l-.118.008a14.215 14.215 0 012.839-.5 57.66 57.66 0 012.839-.214c1.893-.1 3.787-.153 5.68-.186 3.786-.06 7.572-.041 11.356 0s7.568.127 11.35.235q5.671.194 11.342.446z" transform="translate(-1.941 -2.804)"/><path class="cls-16" d="M452.191 540.283l1.663 9.982h7.612l3.275-.561-2.397-15.513-10.153 6.092z"/><path id="_Path_16" data-name="&lt;Path&gt;" class="cls-56" d="M465.321 540.229c-.728.336-1.5.63-2.3.91a64.215 64.215 0 01-9.864 2.182c-9.1-14.93-32.713-87.654-32.713-87.654-2.171-9.187 11.625 2.576 17.368 2.226a12.182 12.182 0 015.294.77c5.49 2.325 13.543 17.856 13.543 17.856s2.451 5.364 5.014 16.456 3.658 47.254 3.658 47.254z" transform="translate(-1.941 -2.804)"/><path id="_Path_17" data-name="&lt;Path&gt;" d="M465.321 540.229c-.728.336-1.5.63-2.3.91-.574-4.426-1.428-11.484-2.689-22.731-2.815-25.209-18.795-54.074-22.521-60.516a12.182 12.182 0 015.294.77c5.49 2.325 13.543 17.856 13.543 17.856s2.451 5.364 5.014 16.456 3.659 47.255 3.659 47.255z" transform="translate(-1.941 -2.804)" opacity=".54" fill="#3d3d72"/><path id="_Path_18" data-name="&lt;Path&gt;" class="cls-56" d="M455.3 551.616a18.478 18.478 0 005.817-.893 13.876 13.876 0 004.9-3.1s8.079 4.933 8.068 13.791a1.127 1.127 0 01-.739 1.039s-19.372 8.606-26.036 10.96a99.377 99.377 0 01-10.691 2.765.936.936 0 01-1.138-.511c-.35-.9-.524-2.478 1.452-3.994 3-2.3 6.287-4.183 8.566-6.091s4.608-7.169 6.453-8.666a12.222 12.222 0 003.348-5.3z" transform="translate(-1.941 -2.804)"/><g clip-path="url(#clip-path)"><path class="cls-12" d="M495.425 595.652l2.829-151.231h-10.062l2.829 151.231c.033 1.534 1.019 2.777 2.2 2.777s2.17-1.243 2.204-2.777zM402.971 577.961L461.4 438.444l-9.351-3.712-53.17 141.6c-.535 1.438-.077 2.957 1.022 3.394s2.473-.351 3.07-1.765zM583.475 577.961l-58.428-139.517 9.351-3.712 53.17 141.6c.535 1.438.078 2.957-1.021 3.394s-2.475-.351-3.072-1.765z" transform="translate(-1.941 -2.804)"/><g class="cls-13"><path d="M450.425 439.056l5.95 2.362-54.92 138.2a3.207 3.207 0 001.516-1.656L461.4 438.444l-9.351-3.712zM488.267 448.4h7.5l-2.805 149.993a1.623 1.623 0 00.265.035c1.183 0 2.168-1.243 2.2-2.777l2.829-151.231h-10.064zM587.568 576.337l-53.17-141.6-9.351 3.712 1.075 2.566 5.786-2.3L584.773 579.5a1.992 1.992 0 001.773.226c1.1-.432 1.554-1.952 1.022-3.389z" transform="translate(-1.941 -2.804)"/></g></g><path id="_Path_19" data-name="&lt;Path&gt;" class="cls-4" d="M422.36 367.7h-92.448l-18.3-57.537a4.493 4.493 0 014.282-5.855h83.018a4.493 4.493 0 014.282 3.131z" transform="translate(-1.941 -2.804)"/><path id="_Path_20" data-name="&lt;Path&gt;" d="M420.865 367.7h-88.516l-18.129-56.474a4.417 4.417 0 014.241-5.747h79.176a4.447 4.447 0 014.241 3.073z" transform="translate(-1.941 -2.804)" fill="#e1edf9"/><path id="_Path_21" data-name="&lt;Path&gt;" class="cls-60" d="M365.332 316.154H325a1.088 1.088 0 01-1.088-1.088 1.088 1.088 0 011.088-1.088h40.327a1.088 1.088 0 011.088 1.088 1.088 1.088 0 01-1.083 1.088z" transform="translate(-1.941 -2.804)"/><path id="_Path_22" data-name="&lt;Path&gt;" class="cls-60" d="M371.577 321.183h-44.969a1.088 1.088 0 01-1.088-1.088 1.088 1.088 0 011.088-1.088h44.969a1.088 1.088 0 011.088 1.088 1.088 1.088 0 01-1.088 1.088z" transform="translate(-1.941 -2.804)"/><path id="_Path_23" data-name="&lt;Path&gt;" class="cls-60" d="M367.411 326.212h-39.167a1.088 1.088 0 01-1.088-1.088 1.088 1.088 0 011.088-1.088h39.166a1.088 1.088 0 011.088 1.088 1.088 1.088 0 01-1.087 1.088z" transform="translate(-1.941 -2.804)"/><path id="_Path_24" data-name="&lt;Path&gt;" class="cls-60" d="M360.883 331.241H329.84a1.088 1.088 0 01-1.088-1.088 1.088 1.088 0 011.088-1.088h31.043a1.088 1.088 0 011.088 1.088 1.088 1.088 0 01-1.088 1.088z" transform="translate(-1.941 -2.804)"/><path id="_Path_25" data-name="&lt;Path&gt;" class="cls-60" d="M376.453 336.269h-44.969a1.088 1.088 0 01-1.088-1.088 1.088 1.088 0 011.088-1.088h44.969a1.088 1.088 0 011.088 1.088 1.087 1.087 0 01-1.088 1.088z" transform="translate(-1.941 -2.804)"/><path id="_Path_26" data-name="&lt;Path&gt;" class="cls-60" d="M372.26 341.3h-39.166a1.088 1.088 0 01-1.088-1.088 1.088 1.088 0 011.088-1.088h39.166a1.088 1.088 0 011.088 1.088 1.088 1.088 0 01-1.088 1.088z" transform="translate(-1.941 -2.804)"/><path id="_Path_27" data-name="&lt;Path&gt;" class="cls-60" d="M381.272 351.356H336.3a1.088 1.088 0 01-1.088-1.088 1.088 1.088 0 011.088-1.088h44.969a1.088 1.088 0 011.088 1.088 1.088 1.088 0 01-1.085 1.088z" transform="translate(-1.941 -2.804)"/><path id="_Path_28" data-name="&lt;Path&gt;" class="cls-60" d="M382.909 356.385H337.94a1.088 1.088 0 01-1.088-1.088 1.088 1.088 0 011.088-1.088h44.969A1.088 1.088 0 01384 355.3a1.088 1.088 0 01-1.091 1.085z" transform="translate(-1.941 -2.804)"/><path id="_Path_29" data-name="&lt;Path&gt;" class="cls-60" d="M406.821 356.385H392.3a3.1 3.1 0 01-2.959-2.168l-12.11-38.328a3.1 3.1 0 012.959-4.038h14.526a3.1 3.1 0 012.959 2.168l12.109 38.328a3.1 3.1 0 01-2.963 4.038z" transform="translate(-1.941 -2.804)"/><path id="_Path_30" data-name="&lt;Path&gt;" class="cls-4" d="M430.107 371.888H329.573a2.974 2.974 0 01-2.973-2.974 2.974 2.974 0 012.973-2.974h100.534a2.974 2.974 0 012.974 2.974 2.974 2.974 0 01-2.974 2.974z" transform="translate(-1.941 -2.804)"/><g id="_Group_" data-name="&lt;Group&gt;"><path id="_Compound_Path_" data-name="&lt;Compound Path&gt;" class="cls-56" d="M459.134 292.389a2.528 2.528 0 01-2.2-1.268l-3.344-5.882a2.513 2.513 0 011.012-3.468l9.309-4.917a2.526 2.526 0 013.384 1.021l3.177 5.833a2.514 2.514 0 01-1.008 3.414l-9.141 4.965a2.49 2.49 0 01-1.189.302zm5.949-14.664a1.334 1.334 0 00-.628.156l-9.309 4.916a1.354 1.354 0 00-.545 1.868l3.345 5.882a1.363 1.363 0 001.826.52l9.141-4.965a1.355 1.355 0 00.542-1.838l-3.176-5.833a1.36 1.36 0 00-1.196-.706z" transform="translate(-1.941 -2.804)"/></g><path id="_Path_31" data-name="&lt;Path&gt;" class="cls-16" d="M420.981 353.2a17.593 17.593 0 01-1.172 1.37s-4.874-3.691-6.232-4.039-4.247.731-5.9.824-1.786-.883-1.786-.883-6.291 2.623-7.3 2.867-1.695-.093-1.068-1.694a6.8 6.8 0 011.161-1.578l.012-.012c2.147-2.426 6.569-6.3 8.158-7.068 2.031-.963 4.793-2.367 7.009-1.543s9.435 6.232 9.435 6.232c.213 1.856-1.226 4.124-2.317 5.524z" transform="translate(-1.941 -2.804)"/><path id="_Path_32" data-name="&lt;Path&gt;" d="M422.479 348l-1.5 5.2a17.593 17.593 0 01-1.172 1.37s-4.874-3.691-6.232-4.039-4.247.731-5.9.824-1.786-.883-1.786-.883-6.291 2.623-7.3 2.867-1.695-.093-1.068-1.694a6.8 6.8 0 011.161-1.578c-.533.738-1.125 1.5-.775 2.438.426 1.145 7.177-2.074 12.054-5.015.076-.046.468-.24.6-.013a.725.725 0 01-.268.547c-.813.873-4.9 1.18-4.073 2.484 1.166 1.834 5.362-1.532 7.659-.778a23.661 23.661 0 015.176 2.855s1.323-3.912 3.424-4.585z" transform="translate(-1.941 -2.804)" fill="#ffd19f"/><path id="_Path_33" data-name="&lt;Path&gt;" d="M419.068 354.572s23.911 20.913 41.8 23.041 48.065-31.813 48.065-31.813-1.9-18.083-13.055-15.957-26.111 29.012-32.59 30.27-40.17-13.021-40.17-13.021a8.758 8.758 0 00-2.084 2.567 22.48 22.48 0 00-1.966 4.913z" transform="translate(-1.941 -2.804)" fill="#006466"/><path id="_Path_34" data-name="&lt;Path&gt;" class="cls-16" d="M500.423 251.505c-6.543-7.49-16.215-8.3-23.681-7.47a24.736 24.736 0 00-21.153 17.142 22.019 22.019 0 00.445 14.118c6.093 16.827 12.475 27.562 18.423 30.753 2.27 1.218 6.611.406 11.248-1.223a1.308 1.308 0 011.592.609l1.957 3.661 17.214-3.723a58.655 58.655 0 01-3.389-9.83c2.501-3.159 9.321-30.334-2.656-44.037z" transform="translate(-1.941 -2.804)"/><path id="_Path_35" data-name="&lt;Path&gt;" class="cls-31" d="M465.636 275.513a4.931 4.931 0 015 2.936c1.415 3.368 3.6 8.08 5.318 9.612a1.751 1.751 0 001.892.018 1.481 1.481 0 00.864-1.469 39.93 39.93 0 00-1.989-6.706 4.516 4.516 0 013.391-6.253 7.64 7.64 0 012.8.173c5.089 1.544 1.583 9.524 1.48 13.693-.072 2.938 3.445 9.748 5 10.36 5.113 2.006 12.862.194 16.972-4.884s5-22.049 2.756-32.2-10.372-15.884-13.055-16.537a9.456 9.456 0 00-3.185-.256 2.966 2.966 0 01-2.244-.733c-2.705-2.354-10.789-7.733-23.578-2.211a29.644 29.644 0 00-18.35 28.287c.189 4.337 3.595 4.017 5.956 3.261a3.943 3.943 0 013.75.811 9.554 9.554 0 007.222 2.098z" transform="translate(-1.941 -2.804)"/><path id="_Path_36" data-name="&lt;Path&gt;" class="cls-63" d="M488.722 311.851s-1.481-1.65-.919-2.659c.7-1.252 8.252-7.229 17.069-6.915 1.371.049 3.046.049 4.69 3.627a25.851 25.851 0 012.031 5.948h-22.871z" transform="translate(-1.941 -2.804)"/><path id="_Path_37" data-name="&lt;Path&gt;" class="cls-63" d="M522.281 456.455c-.534.128-1.114.255-1.718.372-7.485 1.393-19.659 1.555-19.659 1.555-24-.429-36.13-22.787-40.029-29.46a24.921 24.921 0 01-1.915-3.911c1.37-.731 17.672-9.521 16.8-39.538-.181-6.22-.093-20.146-3.191-25.554-1.706-2.971-6.754-8.994-9.922-15.341-2.6-5.223-3.945-10.665-1.1-14.82 7.056-10.363 18.185-15.876 18.185-15.876s20.425-8.181 37.821-6.325c11.036 1.16 20.865 6.359 23.488 20.251 6.765 35.777-18.76 128.647-18.76 128.647z" transform="translate(-1.941 -2.804)"/><path id="_Path_38" data-name="&lt;Path&gt;" d="M482.435 377.616c2.966 29.531-17.138 48.126-21.56 51.306a24.921 24.921 0 01-1.915-3.911c1.37-.731 16.7-14.036 16.8-39.538.026-6.223-.093-20.146-3.191-25.554-1.706-2.971-6.754-8.994-9.922-15.341l1.346-.522 8.193-1.358 4.155 3.389s4.173 12.399 6.094 31.529z" transform="translate(-1.941 -2.804)" opacity=".18" fill="#00b3b7"/><path id="_Path_39" data-name="&lt;Path&gt;" d="M522.281 456.455c-.534.128-1.114.255-1.718.372 1.532-8.066 11.228-58.717 14.385-77.087 6.232-36.266-.255-54.635-3.911-61.216-2.955-5.319-8.645-8.135-13.485-10.967 11.036 1.16 20.865 6.359 23.488 20.251 6.766 35.777-18.759 128.647-18.759 128.647z" transform="translate(-1.941 -2.804)" opacity=".45" fill="#00b3b7"/><path id="_Path_40" data-name="&lt;Path&gt;" class="cls-16" d="M404.53 564.674a15.91 15.91 0 01-5.708 1.1c-3.524 0-4.548-1.317-4.548-1.317v-8.036l11.609-1.494z" transform="translate(-1.941 -2.804)"/><path id="_Path_41" data-name="&lt;Path&gt;" d="M495.739 452.292c-.07 5.224-1.456 13.557-9.285 15.91-11.68 3.5-20.308 1.513-33.85-.826-11.344-1.947-41.22-8.378-46.71-10.464a.95.95 0 00-1.275 1.078c2.591 12.661 4.662 18.133 6.341 37.132 1.411 15.962-4.722 61.143-4.722 61.143a32.4 32.4 0 01-3.866.9 15.629 15.629 0 01-2.227.2 50.684 50.684 0 01-6.484-.546s-12.114-66.539-13.752-93.5.939-29.187 13.193-34.9 67.035-3.6 67.035-3.6l.014.014c.154.476 3.235 8.893 12.325 16.512a51.948 51.948 0 0023.263 10.947z" transform="translate(-1.941 -2.804)" fill="#3d3d72"/><path class="cls-67" d="M462.425 429.472a30.892 30.892 0 01-2.273-4.644l-.014-.014s-.635-.024-1.733-.059a45.509 45.509 0 004.02 4.717zM488.188 450.193c-1.1 3.956-3.47 7.811-8.4 9.293-11.68 3.5-20.308 1.513-33.85-.826-11.344-1.947-41.221-8.378-46.711-10.465a.95.95 0 00-1.274 1.078c2.591 12.661 4.662 18.133 6.341 37.132 1.1 12.429.631 52.947.369 70.28.917-.225 1.576-.421 1.576-.421s6.133-45.181 4.722-61.143c-1.68-19-3.751-24.471-6.342-37.131a.951.951 0 011.275-1.079c5.49 2.087 35.366 8.518 46.71 10.464 13.543 2.339 22.17 4.328 33.85.827 7.829-2.353 9.215-10.686 9.285-15.91a58.75 58.75 0 01-7.551-2.099z" transform="translate(-1.941 -2.804)"/><path id="_Path_42" data-name="&lt;Path&gt;" class="cls-56" d="M394.076 563.333a18.475 18.475 0 005.762 1.2 13.881 13.881 0 005.675-1.2s5.846 7.445 2.74 15.741a1.127 1.127 0 01-1.056.715h-39.205a.878.878 0 01-.889-.85c-.013-.966.375-2.505 2.756-3.234 3.618-1.109 7.353-1.722 10.154-2.714s6.822-5.106 9.074-5.865a12.221 12.221 0 004.989-3.793z" transform="translate(-1.941 -2.804)"/><path id="_Path_43" data-name="&lt;Path&gt;" class="cls-16" d="M376.291 366.829s-3.489-.912-5.3-1.282a19.239 19.239 0 00-1.937-.283 10.07 10.07 0 00-2.3.072l-18.744 2.594a1 1 0 01-1.114-.853 2.159 2.159 0 01.728-1.94l1.832-1.577 5.474-4.718c2.711-2.332 4.859-2.749 8.443-2.928a32.765 32.765 0 013.865.783c3.673.673 4.51 1.1 6.958 1.6a16.225 16.225 0 002.048.326 1.929 1.929 0 00.816-.031 11.356 11.356 0 01-.769 8.237z" transform="translate(-1.941 -2.804)"/><path id="_Path_44" data-name="&lt;Path&gt;" class="cls-17" d="M404.906 368.691a.086.086 0 01-.112.031c-.48-.2-3.409-1.4-5-1.968a18.815 18.815 0 00-1.623-.483 12.632 12.632 0 00-2.556-.307H376.8a1.064 1.064 0 01-1.086-1.039 2.156 2.156 0 01.986-1.781l2.031-1.311c-1.921 1.46-2.231 2.559-1.268 2.675.77.093 2.593-.109 7.212-1.395.1-.029.145.134.053.191a1.033 1.033 0 00.641 1.954c.776-.038 4.075-.247 4.835-.29 2.95-.169 7.249-.447 8.075-.3a14.146 14.146 0 014.134 1.432c.808.421 1.577-.5 1.871-1.362a35.22 35.22 0 011.66-4.128 1.933 1.933 0 00.813.082 11.428 11.428 0 01-1.851 7.999z" transform="translate(-1.941 -2.804)"/><path id="_Path_45" data-name="&lt;Path&gt;" class="cls-63" d="M478.974 323.536c-2.48-1.514-9.981-5.68-19.652 9.4s-17.407 26.4-20.792 28.428-11.7.58-14.7.58-46.887-3.424-46.887-3.424a30.911 30.911 0 00-2.466 8.45s40.214 10.544 65.14 10.64 43.881-37.619 44.751-42.165.532-8.29-5.394-11.909z" transform="translate(-1.941 -2.804)"/><g id="_Group_2" data-name="&lt;Group&gt;"><path id="_Path_46" data-name="&lt;Path&gt;" class="cls-56" d="M454.915 288.414a.58.58 0 01-.265-1.1l21.624-11.083c2.447-1.254 7.456-3.819 11.174 1.635a.58.58 0 01-.959.654c-2.9-4.255-6.356-2.964-9.645-1.276l-21.664 11.1a.581.581 0 01-.265.07z" transform="translate(-1.941 -2.804)"/></g><path id="_Path_47" data-name="&lt;Path&gt;" class="cls-16" d="M476.633 277.616l2.611 8.341a2.65 2.65 0 003.99-.29c1.958-2.254 3.662-10.082.072-11.387s-5.766.544-6.673 3.336z" transform="translate(-1.941 -2.804)"/><path class="cls-14" d="M574.917 398.406c0-42.122-.991-71.8-27.672-76.268-36.3-6.075-64.7 25.356-58.887 85.579 3.33 34.507-10.82 46.351-22.871 53.09-7.792 4.358-22.875 3.423-22.875 3.423s-6.986-.828-11.675-1.27c2.9 1.338 65.056 31.967 109.408 9.336 39.313-20.059 34.572-49.109 34.572-73.89z" transform="translate(-1.941 -2.804)"/><path class="cls-15" d="M574.917 398.406c0-42.122-.991-71.8-27.672-76.268a55.78 55.78 0 00-3.815-.5c-29.085 2.879-48.142 33.51-43.068 86.1 3.33 34.507-10.82 46.35-22.871 53.09-7.792 4.358-22.875 3.423-22.875 3.423s-.354-.111-1-.306a75.056 75.056 0 01-11 .288s-6.986-.828-11.675-1.27c2.9 1.338 65.056 31.967 109.408 9.336 39.309-20.062 34.568-49.112 34.568-73.893z" transform="translate(-1.941 -2.804)"/></g></g></svg>