<svg id="OBJECTS" xmlns="http://www.w3.org/2000/svg" viewBox="0 0 242.673 191.626"><defs><linearGradient id="linear-gradient" x1="152.574" y1="-36.225" x2="397.634" y2="-36.225" gradientTransform="matrix(-.946 -.19 .189 -.945 398.514 103.642)" gradientUnits="userSpaceOnUse"><stop offset="0" stop-color="#00bfc2"/><stop offset=".489" stop-color="#00bdc4"/><stop offset=".665" stop-color="#00b6c9"/><stop offset=".79" stop-color="#00abd4"/><stop offset=".892" stop-color="#009ae2"/><stop offset=".978" stop-color="#0084f5"/><stop offset="1" stop-color="#007dfb"/></linearGradient><linearGradient id="linear-gradient-2" x1="365.24" y1="125.365" x2="389.536" y2="125.62" gradientTransform="matrix(-.923 -.32 .451 -.927 460.639 301.257)" gradientUnits="userSpaceOnUse"><stop offset="0" stop-color="#eef4fb"/><stop offset=".311" stop-color="#e3edf8"/><stop offset="1" stop-color="#cfe1f3"/></linearGradient><style>.cls-3{fill:#fff}.cls-5{fill:#482c3b}.cls-6{fill:#a6aeba}.cls-7{fill:#d2dceb}.cls-8{fill:#d0dfe1}.cls-9{fill:#b0bebf}.cls-10{fill:#ffe0bc}.cls-11{fill:#0b5a70}.cls-12{fill:#f7d4b2}.cls-13{fill:#8b4200}.cls-15{fill:#ffd04d}.cls-16{fill:#b56537}.cls-18{fill:#133a50}.cls-19{fill:#364469}.cls-20{fill:#e9f2f4}.cls-26{fill:#00a0b4}</style></defs><path d="M95.01 57.685c46.025-16.556 80.669-88.821 134.929-30.61s9.237 146.434-56.034 156.869-140.855-18-154.425-64.415C-3.709 40.223 64.135 68.791 95.01 57.685z" transform="translate(-11.46 -.001)" fill="#f0f0f0"/><path d="M91.727 52.907C137.753 36.352 172.4-35.914 226.659 22.3s9.237 146.434-56.034 156.869-140.855-18-154.425-64.415C-6.991 35.445 60.852 64.013 91.727 52.907z" transform="translate(-11.46 -.001)" fill="url(#linear-gradient)"/><path class="cls-3" d="M160.781 27.308l-.466-1.335-.466 1.335a4.661 4.661 0 01-2.589 2.636 4.66 4.66 0 012.589 2.636l.466 1.335.466-1.335a4.661 4.661 0 012.589-2.636 4.661 4.661 0 01-2.589-2.636zM108.679 124.6l-.466-1.335-.466 1.335a4.661 4.661 0 01-2.589 2.636 4.661 4.661 0 012.589 2.636l.466 1.335.466-1.335a4.66 4.66 0 012.589-2.636 4.66 4.66 0 01-2.589-2.636zM234.9 62.565l-.308-.881-.307.881a3.075 3.075 0 01-1.705 1.735 3.075 3.075 0 011.708 1.739l.307.881.308-.881a3.075 3.075 0 011.708-1.739 3.075 3.075 0 01-1.711-1.735zm-146.571 9.71l-.307-.881-.307.881a3.074 3.074 0 01-1.708 1.739 3.075 3.075 0 011.708 1.739l.307.881.307-.881a3.075 3.075 0 011.708-1.739 3.075 3.075 0 01-1.708-1.739z" transform="translate(-11.46 -.001)"/><path d="M55.891 191.267h1.717l14.003-68.26h-3.547l-12.173 68.26zm132.127 0h-1.717l-14.003-68.26h3.547l12.173 68.26z" fill="#c7c7c7"/><path class="cls-5" d="M65.088 81.919a4.872 4.872 0 00-1.11 2.214 3.411 3.411 0 011.147-1.551c.705-.448 1.642-.387 2.353-.826a3.83 3.83 0 001.307-1.9 5.383 5.383 0 01-1.817 1.053 3.649 3.649 0 00-1.88 1.01z" transform="translate(-11.46 -.001)"/><path class="cls-6" d="M59.643 158.357h2.607v25.264h-2.607z"/><path class="cls-7" d="M58.851 154.678h4.191v3.678h-4.191zm.513 19.22h3.165v7.884h-3.165z"/><path class="cls-7" d="M58.851 181.781h4.191v3.678h-4.191z"/><path class="cls-6" d="M55.866 147.715h10.16v6.963h-10.16z"/><rect class="cls-6" x="47.281" y="145.633" width="28.344" height="5.214" rx=".541" ry=".541"/><path class="cls-6" d="M50.848 188.973l8.002-3.967v-2.766l-9.052 6.067 1.05.666z"/><circle class="cls-6" cx="49.798" cy="189.751" r="1.875"/><circle class="cls-6" cx="60.946" cy="189.751" r="1.875"/><path class="cls-6" d="M71.043 188.973l-8.001-3.967v-2.766l9.052 6.067-1.051.666z"/><circle class="cls-6" cx="72.094" cy="189.751" r="1.875"/><path class="cls-6" d="M60.439 183.62h1.015v6.107h-1.015z"/><path class="cls-8" d="M54.029 148.49a1.983 1.983 0 01-1.994-1.509c-.685-2.824-1.929-8.1-1.957-21.268a126.566 126.566 0 00-4.092-30.247 3.019 3.019 0 011.442-3.278 4.089 4.089 0 012.04-.545h25.257s10.383 18.573 11.745 24.937 3.264 30.793 3.264 30.793z" transform="translate(-11.46 -.001)"/><path class="cls-9" d="M54.853 148.539s-2.359-4.625-2.4-22.825c-.032-14.986-3.01-27.332-3.869-32.1a1.675 1.675 0 011.653-1.972H77.1s10.383 18.573 11.745 24.937 3.264 30.793 3.264 30.793z" transform="translate(-11.46 -.001)"/><path class="cls-8" d="M79.355 148.542h-25.57a1.309 1.309 0 01-1.309-1.309V143h26.879v5.537z" transform="translate(-11.46 -.001)"/><path class="cls-9" d="M96.528 148.542H58.741v-3.9A1.639 1.639 0 0160.38 143h36.148a1.639 1.639 0 011.639 1.639v2.261a1.639 1.639 0 01-1.637 1.641z" transform="translate(-11.46 -.001)"/><path class="cls-10" d="M62.544 85.247s3.907-1.237 4.3-2.937c.32-1.381.83-5.671.83-5.671h6.814a31.86 31.86 0 000 5.074c.648 3.086 4.519 4.1 4.519 4.1l.552 9.643-10.043 8.42-9.691-9.736z" transform="translate(-11.46 -.001)"/><path id="_Path_" data-name="Path" class="cls-10" d="M78.125 66.13c1.718 2.292 1.368 2.616 1.132 5.773A25.478 25.478 0 0177.9 78.4c-.463 1.19-2.886 6.307-7.206 4.439a13.291 13.291 0 01-5.886-5.331 17.071 17.071 0 01-.921-5.736c-.044-2.1-.054-4.824.021-6.39.268-5.53 11.074-3.446 14.217.748z" transform="translate(-11.46 -.001)"/><path class="cls-11" d="M89.371 131.117c3.72-.806 5.792.39 8.021 3.064s1.337 9.137 0 14.485-6.463 40.98-6.463 40.98h-3.788s-.973-14.04-1.641-24.291 1.62-24.935 1.62-24.935l-14.465-9.3s13.375.721 16.716-.003z" transform="translate(-11.46 -.001)"/><path class="cls-11" d="M89.193 125.954c2.84 2.652 11.2 7.123 9.533 12.651l-11.2 4.746s-11.38-4.125-14.871-12.235l-3.49-8.11 7.5-2.984z" transform="translate(-11.46 -.001)"/><path class="cls-11" d="M81.013 133.081c2.06 1.488 7.627 3.938 6.513 10.271-.568 3.23-9.674 22.74-14.648 30.939-2.535 4.179-7.05 12.925-7.05 12.925l-4.234 1.012s3.262-10.616 5.49-20.421S75.8 146.3 75.8 146.3a66.89 66.89 0 00-8.357-4.794c-3.566-1.56-5.484-2.2-.136-7.321s9.693-4.002 13.706-1.104z" transform="translate(-11.46 -.001)"/><path class="cls-12" d="M89.193 102.911a26.168 26.168 0 002.2 6.4c.89 1.553 19.259 8.323 19.259 8.323h-10.73s-10.213-1.339-13.127-5.256a70.742 70.742 0 01-5.616-9.472h8.014z" transform="translate(-11.46 -.001)"/><path class="cls-11" d="M82.614 87.156c1.9.845 3.655 5.645 5.058 9.735a26.27 26.27 0 011.521 6.02s-4.909 2.807-7.513 2.105c0 0-2.473-8.884-.77-13.372z" transform="translate(-11.46 -.001)"/><path class="cls-11" d="M73.143 126.275c5.352-.214 10.7-.344 16.051-.321-2.6-1.686-4.9-2.861-5.4-3.361-1.114-1.114-.736-11.04.083-14.124s.769-6.656.176-8.247-1.444-13.066-1.444-13.066L79 85.815s1.106 8.325-7.642 8.325c-8.783 0-8.821-8.893-8.821-8.893l-5.6 1.24s-.413 10.84-.205 15.759 2.545 13.439 3.213 17.9c.52 3.469-.443 5.59-1.106 8.145a35.584 35.584 0 0114.304-2.016z" transform="translate(-11.46 -.001)"/><path class="cls-13" d="M66.091 186.5c-1.2-.24-1.628.24-2.711.962a4.569 4.569 0 01-2.285.721v3.247h8.364zm25.568.6s-.122 1.126-1.926 1.634a3.069 3.069 0 01-3.031-.982l-.4 3.678 14.257.085z" transform="translate(-11.46 -.001)"/><path class="cls-10" d="M91.909 116.79c-1.6-.19-3.138-1.688-9.34-1.762A95.52 95.52 0 0172.1 112.99a22.021 22.021 0 01-5.912-2.551s-2.273-8.474-3.14-13.849c-2.521-.277-5.035-.6-7.533-1.023-.089 6.712 4.666 18.646 6.249 19.836 3.081 2.318 10.322 2.2 12.061 2.234 4.028.073 21.192.536 21.192.536s1.319-.857-3.108-1.383z" transform="translate(-11.46 -.001)"/><path class="cls-11" d="M65.067 105.079s-2.284-13.411-2.945-14.822C58.7 82.964 54 86.85 54.692 92.493c.294 2.4.481 8.612 1.7 14.477a19.128 19.128 0 008.675-1.891z" transform="translate(-11.46 -.001)"/><path class="cls-6" d="M76.794 118.173h6.759l6.759-23.648h-5.139l-8.379 23.648z"/><path class="cls-7" d="M78.734 118.173h26.379l6.759-23.648H85.493l-6.759 23.648z"/><path class="cls-7" d="M74.853 117.638h30.26v1.764h-30.26z"/><path class="cls-6" d="M59.723 117.638h15.13v1.764h-15.13z"/><ellipse class="cls-6" cx="107.265" cy="108.59" rx="3.557" ry="2.803" transform="rotate(-67.133 101.535 117.225)"/><path class="cls-11" d="M58.847 128.287c-1 4.8 1.361 15.273 16.953 18.01l8.9 3.6a11.719 11.719 0 002.425-9.479c-1.115-5.5-7.359-7.59-11.473-14.24 0 0-6.463-2.7-10.616-1.256a18.431 18.431 0 00-6.189 3.365z" transform="translate(-11.46 -.001)"/><path class="cls-5" d="M79.459 69.4s-1.876.073-4.181-3.4c0 0 .248 1.573-1.994 3.692s-4.253 1.545-4.591 2.568a7.772 7.772 0 00-.369 1.943 1.029 1.029 0 01-.74-.554 5.067 5.067 0 00-.769-1.513c-1.024-.678-2.784.231-2.22 2.224a4.267 4.267 0 001.7 2.076c-.026 3.4 1.362 4.448 1.362 4.448s-2.3 1.045-3.476.566c-1.681-.689-2.112-1.75-2.051-3.65a4.523 4.523 0 01-2.254-1.172c-2.349-2.331.36-8.971 1.448-9.791 0 0-2.568-3.637.659-6.08 3.274-2.479 4.539 1.528 4.539 1.528 1.087-.82 5.545-1.1 7.816-.25 6.392 2.384 5.121 7.365 5.121 7.365z" transform="translate(-11.46 -.001)"/><path d="M63.666 65.962c.2 1.3.01 4.317-3.47 6.679" stroke-width=".25" stroke="#482c3b" fill="none" stroke-miterlimit="10"/><path class="cls-6" d="M206.193 158.356h2.607v25.264h-2.607z"/><path class="cls-7" d="M205.401 154.678h4.191v3.678h-4.191zm.513 19.219h3.165v7.884h-3.165zm-.513 7.885h4.191v3.678h-4.191z"/><path class="cls-6" d="M202.417 147.715h10.16v6.963h-10.16z"/><rect class="cls-6" x="192.817" y="145.633" width="28.344" height="5.214" rx=".541" ry=".541"/><path class="cls-6" d="M217.594 188.973l-8.001-3.967v-2.766l9.052 6.067-1.051.666z"/><circle class="cls-6" cx="218.645" cy="189.751" r="1.875"/><circle class="cls-6" cx="207.497" cy="189.751" r="1.875"/><path class="cls-6" d="M197.399 188.973l8.002-3.967v-2.766l-9.052 6.067 1.05.666z"/><circle class="cls-6" cx="196.349" cy="189.751" r="1.875"/><path class="cls-6" d="M206.989 183.621h1.015v6.107h-1.015z"/><path class="cls-8" d="M237.334 148.49a1.983 1.983 0 001.994-1.509c.685-2.824 1.929-8.1 1.957-21.268.031-14.535 7.65-25.588 8.691-30.247a3.019 3.019 0 00-1.442-3.278 4.089 4.089 0 00-2.04-.545h-29.856s-10.383 18.573-11.745 24.937-3.264 30.793-3.264 30.793z" transform="translate(-11.46 -.001)"/><path class="cls-9" d="M236.51 148.539s2.359-4.625 2.4-22.825c.032-14.986 7.608-27.332 8.467-32.1a1.675 1.675 0 00-1.653-1.972h-31.465s-10.383 18.573-11.745 24.937-3.264 30.793-3.264 30.793z" transform="translate(-11.46 -.001)"/><path class="cls-8" d="M203.739 143h35.148v4.228a1.309 1.309 0 01-1.309 1.309h-33.839V143z" transform="translate(-11.46 -.001)"/><path class="cls-9" d="M194.835 143h11.657a1.639 1.639 0 011.639 1.639v3.9h-13.3a1.638 1.638 0 01-1.631-1.639v-2.259a1.639 1.639 0 011.635-1.641z" transform="translate(-11.46 -.001)"/><path class="cls-12" d="M209.966 86.18c-2.433 2.422-2.6 14.593-5.059 20.91 0 0-16.775 6.558-24.421 8.484l2.654 2.8s22.729-5.463 25.611-7.381c4.406-2.931 6.967-14.791 7.387-20.724s-3.629-6.62-6.172-4.089z" transform="translate(-11.46 -.001)"/><path class="cls-12" d="M182.351 116.014l-1.865-.439s-3.836-.351-5.064-.526-2.7 1.228-4.374 1.754a15.973 15.973 0 00-3.3 1.569h1.34l2.733.448 2.464-.448a24.252 24.252 0 014.626 0 20 20 0 004.233 0zm16.602 12.266c-5.205 1.725-11.589 4.491-13.458 6.23s-5.552 4.208-2.582 13.765c1.9 6.106 10.171 37.039 10.171 37.039l4.192-.746s-1.489-17.923-2.981-31.332c-.723-6.5-.969-8.313-.969-8.313l5.627-2.291c7.133-2.931 4.688-15.182 4.688-15.182z" transform="translate(-11.46 -.001)"/><path class="cls-10" d="M187.3 132.643c-1.869 1.739-3.191 1.157-6 10.763-1.793 6.138-8.332 37.093-8.332 37.093l3.906 1.7c5.282-14.8 5.275-14.782 11.447-26.791a53.44 53.44 0 004.245-11.563l11.409-.685c7.133-2.931 4.688-13.343 4.688-13.343s-19.493 1.083-21.363 2.826z" transform="translate(-11.46 -.001)"/><path class="cls-15" d="M230.52 123.439c0 5 3.618 10.52-.575 16.2-3.792 5.141-25.967 3.511-25.967 3.511s3.128-5.417.158-9.518c-1.9-2.621-6.274-5.048-6.274-5.048l12.4-4.007 9.959-7.736z" transform="translate(-11.46 -.001)"/><path class="cls-16" d="M218.077 85.077c-.671 2.28-5.428 2.235-8.941-2.022s-6.057-11.513-2.552-16.639 8.193 4.8 9.79 10.082a37.061 37.061 0 011.703 8.579z" transform="translate(-11.46 -.001)"/><path class="cls-10" d="M207.007 66.344c-.942 1.119-.04 5.381.125 6.014.319 1.224-.3 2.909.053 3.193a2.417 2.417 0 001.135.2c.064.015 1.715 3.253 2.007 3.924.445 1.021 2.839-.788 3.563-.022.525.556.548 1.585.726 2.862l-1.4 5.653 11.424-2.2a55.679 55.679 0 01-4.186-7.237c-.852-2.271.213-4.754-.071-7.805s-1.646-6.972-5.96-7.379a8.554 8.554 0 00-7.416 2.797z" transform="translate(-11.46 -.001)"/><path d="M210.62 123.931a24.212 24.212 0 017.654 0c4.752.636 11.795-.7 11.795-.7s-2.886-14.881-2.709-21.631.711-14.031.711-14.031l-12.655-2.131s-3.064 1.1-4.8 6.039-1.457 26.267.004 32.454z" transform="translate(-11.46 -.001)" fill="#e4ddd7"/><path class="cls-18" d="M214.616 82.511c-.932.933-4 2.131-4 3.463s-2.4 12.788-2.264 15.186 1.014 11.508.481 14.305a69.889 69.889 0 00-.533 9l2.316-.533s-.666-15.844 0-21.7 4.8-16.651 4.8-16.651l-1.554-.533z" transform="translate(-11.46 -.001)"/><path class="cls-18" d="M219.221 85.575l-3.8-.133s-1.28 5.861-1.28 17.147a182.283 182.283 0 001.946 22.309 23.369 23.369 0 006.944 1.273 16.562 16.562 0 007.042-1.332 145.591 145.591 0 010-18.35c.666-9.058 3.088-11.118 2.62-17.051-.776-9.84-9.68-6.394-9.68-6.394z" transform="translate(-11.46 -.001)"/><path class="cls-15" d="M215.415 85.442s6.128-2.931 7.06-4.8a6.343 6.343 0 01.533 2.4c-.133.8-5.994 6.394-5.994 6.394z" transform="translate(-11.46 -.001)"/><path class="cls-16" d="M220.491 86.141c1.5-7.563-2.52-9.787-6.919-12.483a22.8 22.8 0 01-6.988-7.243s1.7-5.535 6.67-6.67 11.311 1.962 12.914 9.792c1.136 5.551 2.622 7.508 6.386 10.218 4.54 3.269 5.9 11.6.6 15.615-4.9 3.714-2.067-5.107-3.885-10.059-.308-.838-4.118 3.421-6.246 4.126-2.23.74-2.773-2.079-2.532-3.296z" transform="translate(-11.46 -.001)"/><path class="cls-15" d="M214.616 82.511a3.327 3.327 0 00.8 2.931l-2.264 3.2s-.666-2.531 0-3.6 1.464-2.531 1.464-2.531z" transform="translate(-11.46 -.001)"/><path class="cls-18" d="M192.792 183.072s.122 1.126 1.926 1.634a3.069 3.069 0 003.031-.982l.4 3.678-5.761 4.062H187.6l2.589-2.873zm-19.204-5.095a1.978 1.978 0 00.715 2.61 3.069 3.069 0 003.186-.013l-.739 3.626-13.6-4.256z" transform="translate(-11.46 -.001)"/><path class="cls-10" d="M226.359 87.324c-1.315 3.171-5.176 13.585-7.637 19.9 0 0-17.876 5.726-25.522 7.652l2.654 2.8s21.8-3.338 26.531-5.542c4.8-2.235 9.34-17.609 10.146-21.643 1.163-5.832-4.756-6.591-6.172-3.167z" transform="translate(-11.46 -.001)"/><path class="cls-10" d="M195.059 115.318l-1.865-.438s-3.836-.351-5.064-.526-2.7 1.228-4.374 1.754a15.966 15.966 0 00-3.3 1.569h1.34l2.733.448 2.465-.448a24.251 24.251 0 014.626 0 20.007 20.007 0 004.233 0z" transform="translate(-11.46 -.001)"/><path class="cls-19" d="M157.629 52.036l4.85 11.245-1.244.536-4.852-11.251a.252.252 0 01.131-.331l.786-.335a.252.252 0 01.329.136z" transform="translate(-11.46 -.001)"/><path class="cls-19" d="M157.6 54.784l.809-.349-1.361-3.155a.441.441 0 00-.579-.23.441.441 0 00-.23.579z" transform="translate(-11.46 -.001)"/><path class="cls-12" d="M148.315 65.314s4.768 13.1 6.5 13.034c1.3-.047 10.019-11.961 11.422-14.024s4.125-6.909 4.125-6.909l-3.547-1.1s-6.1 7.352-7.672 8.672-2.227 1.815-2.227 1.815l-1.816-4.959z" transform="translate(-11.46 -.001)"/><path class="cls-19" d="M150.952 51.67c1.92.511 2.583 2.219 3.408 5.746a70.237 70.237 0 002.024 6.855l-6.314 2.941s-1.139-6.269-1.559-10.229.766-5.759 2.441-5.313z" transform="translate(-11.46 -.001)"/><path class="cls-18" d="M125.022 186.514v4.638h8.913s-.335-1.679-4.562-2.453l-.622-2.184h-3.729zm18.837 0v4.638h8.913s-.335-1.679-4.562-2.453l-.622-2.184h-3.729zM126.97 93s-1.622 14.746-1.679 30.587-1 62.912-1 62.912h6.4s6.6-45.487 8.994-55.67 8.632-37.638 8.632-37.638z" transform="translate(-11.46 -.001)"/><path class="cls-10" d="M136.805 39.449s-.414 3.225-.754 4.866a13.118 13.118 0 01-.873 3.007 36.8 36.8 0 01-3.957 4.494s10.607 5.6 13.725 5.6 2.025-6.255 2.025-6.255-3.4-2.687-3.907-4.045a30.536 30.536 0 01-.789-5.29z" transform="translate(-11.46 -.001)"/><path class="cls-18" d="M140.881 109.183s1.2 24.138 1.439 28.89 0 48.4 0 48.4 5.995.162 5.995 0 5.652-46.03 6.384-57.741.3-25.593 1.275-27.213-2.624-8.445-2.624-8.445l-8.485 2.263z" transform="translate(-11.46 -.001)"/><path class="cls-20" d="M133.381 48.663l-10.9 4.7s2.156 8.826 2.276 12.334 1.378 31.219 1.378 31.219 3.348 5.186 19.456 3.121c6.211-.8 9.265-3.824 9.265-3.824s-1.741-30.516-2.221-34.024-1.678-10.523-1.678-10.523l-5.257-1.617-2.144 3.2z" transform="translate(-11.46 -.001)"/><path class="cls-19" d="M122.407 46.761l9.687 6.489-2.663 3.061-7.51-7.649.486-1.901zm9.687 6.489l2.642 2.121-.498-5.319-.989-1.39-1.155 4.588z"/><path id="_Path_2" data-name="Path 2" d="M153.759 72.27l9.312 2.69a2.177 2.177 0 002.484-1.1l9.068-19.375a1.449 1.449 0 00-.961-2.071l-9.23-2.727c-1.681-.165-2.521.163-2.947 1.055L152.4 69.97c-.429.902-.266 1.53 1.359 2.3z" transform="translate(-11.46 -.001)" fill="#97a3cc"/><path id="_Path_3" data-name="Path 3" d="M154.289 72.465l9.357 2.708a2.186 2.186 0 002.5-1.1l9.1-19.462a1.455 1.455 0 00-.97-2.078L165 49.8a2.25 2.25 0 00-2.589 1.1l-9.165 19.4a1.519 1.519 0 001.043 2.165z" transform="translate(-11.46 -.001)" fill="url(#linear-gradient-2)"/><path class="cls-10" d="M127.259 67.253s8.658 14.37 9.813 14.865 16.093-9.231 18.9-11.046 5.152-3.6 5.5-3.887a14.96 14.96 0 001.155-3.207 4.529 4.529 0 01-.392-.516l-.371.2.2-1.165-.351-.66-.34.113-.114-1.179-.516-.887s-1.471 1.664-2.379 2.654a13.416 13.416 0 01-1.98 1.732 14.313 14.313 0 000-1.9 5.382 5.382 0 01.165-1.4l-1.447.87s-1.275 4.022-1.523 4.34a7.343 7.343 0 01-4.372 4.112 101.767 101.767 0 01-9.647 3.252c.245-.035-5.648-10.739-5.648-10.739z" transform="translate(-11.46 -.001)"/><path class="cls-19" d="M122.068 58.8c.824 3.914 6.555 12.456 6.555 12.456l7.029-5.267s-2.752-5.5-4.288-8.385c-1.7-3.191-3.285-7.067-6.293-5.936-2.904 1.089-3.663 3.994-3.003 7.132z" transform="translate(-11.46 -.001)"/><path class="cls-10" d="M149.128 31.2c.75.679 1.994 2.045 1.894 2.842a31.19 31.19 0 01-.664 4.481c-.4 1.321-1.171 4.786-1.736 6.307s-1.217 3.608-1.685 3.8a14.519 14.519 0 01-5.345-1.1c-.773-.567-4.868-5.068-4-8.4 0 0-1.074.14-1.733-3.151-.172-.858 3.316-3.3 3.859-4.148 1.318-2.068 6.127-.44 7.5-.334a2.877 2.877 0 001.91-.297z" transform="translate(-11.46 -.001)"/><path class="cls-13" d="M151.022 34.038a1.141 1.141 0 00-1.327-.918h-.009a11.708 11.708 0 01-4.757-.331 11.958 11.958 0 01-2.958-1.364 7.158 7.158 0 01-.966 2.547 4.85 4.85 0 00-1.086 2.1 1.5 1.5 0 01-1.043.853s-.386-1.852-1.216-1.982c-1.645-.258-1.446 1.963-.769 2.686a13.668 13.668 0 001.389 1.278 8.459 8.459 0 01-.527 1.645 7.923 7.923 0 01-1.35 1.656s-.434-4.417-1.479-6.443-.98-5.753 2.037-6.537a4.281 4.281 0 014.654-3.2c3.965.169 7.132 1.753 8.88 1.585a5.375 5.375 0 002.267-.529s.873 2.867-.264 4.387a10.046 10.046 0 00-1.476 2.567z" transform="translate(-11.46 -.001)"/><path class="cls-6" d="M171.406 118.173h-3.707l-3.707-23.648h2.819l4.595 23.648z"/><path class="cls-7" d="M170.342 118.173h-14.467l-3.706-23.648h14.466l3.707 23.648z"/><path class="cls-7" d="M155.681 117.637h15.725v1.764h-15.725z"/><path class="cls-6" d="M171.406 117.637h19.826v1.764h-19.826z"/><path class="cls-6" d="M173.859 107.5c.419 1.81.124 3.766-.658 4.367s-1.756-.378-2.174-2.189-.124-3.766.658-4.367 1.753.379 2.174 2.189z" transform="translate(-11.46 -.001)"/><path d="M29.798 119.585h178.065v3.422H29.798zm19.003 71.682h1.717l14.003-68.26h-3.547l-12.173 68.26zm132.127 0h-1.718l-14.002-68.26h3.547l12.173 68.26z" fill="#dbdbdb"/><path class="cls-20" d="M164.482 27.672h24.049v23.81h-24.049z"/><path class="cls-3" d="M168.085 31.288h8.422V48.3h-8.422z"/><path stroke="#e9f2f4" fill="none" stroke-miterlimit="10" d="M164.482 23.122h24.049v4.55h-24.049z"/><circle class="cls-26" cx="182.641" cy="34.066" r="2.991"/><path class="cls-3" d="M182.405 35.243l-1.384-1.781 1.254.524 2.883-2.521-2.753 3.778z"/><circle class="cls-26" cx="182.641" cy="42.941" r="2.991"/><path class="cls-3" d="M182.405 44.119l-1.384-1.782 1.254.525 2.883-2.522-2.753 3.779z"/></svg>