<svg id="Layer_1" data-name="Layer 1" xmlns="http://www.w3.org/2000/svg" viewBox="0 0 216.395 179.826"><defs><style>.cls-6{fill:#2c2a40}.cls-2{fill:#63676d}.cls-3{fill:#404348}.cls-4{fill:#a0bbe7}.cls-5{fill:#ecb28a}.cls-8{fill:#383851}.cls-9{fill:#82423c}.cls-10{fill:#5c1a31}.cls-11{fill:#bfd7f7}.cls-12{fill:#e8967c}.cls-13{fill:#ededed}.cls-16{fill:#fff}.cls-17{opacity:.2}.cls-18{fill:#ff6160}.cls-19{fill:#9ca4ae}</style></defs><ellipse cx="109.211" cy="174.87" rx="107.184" ry="4.956" opacity=".15" fill="#2c2a40"/><rect class="cls-2" x="164.964" y="123.056" width="40.5" height="8.75" rx="3.074" ry="3.074" transform="rotate(180 185.214 127.431)"/><path class="cls-2" d="M200.094 69.216l7.429.868a8.326 8.326 0 017.221 9.778l-7.3 39.627a8.326 8.326 0 01-8.5 6.811l-18.11-.669a8.325 8.325 0 01-7.817-10.137l8.906-39.826a8.326 8.326 0 018.125-6.509h9.079a8.326 8.326 0 01.967.057z"/><path class="cls-3" d="M196.832 74.856l5.96.7a6.679 6.679 0 015.793 7.844l-5.859 31.79a6.679 6.679 0 01-6.815 5.464l-14.528-.537a6.679 6.679 0 01-6.271-8.132l7.145-31.949a6.679 6.679 0 016.518-5.221h7.284a6.673 6.673 0 01.773.041z"/><path class="cls-2" d="M158.705 174.801h3.358l8.002-32.023 2.743-10.972.525-2.105-3.143-.863-.742 2.968-2.74 10.972-8.003 32.023z"/><path class="cls-3" d="M166.708 142.778h3.357l2.743-10.972h-3.36l-2.74 10.972z"/><path class="cls-2" d="M197.26 129.701l.525 2.105 2.743 10.972 8 32.023h3.357l-8-32.023-2.74-10.972-.742-2.968-3.143.863z"/><path class="cls-3" d="M197.785 131.806l2.743 10.972h3.357l-2.74-10.972h-3.36z"/><path class="cls-4" d="M182.38 62.46l-1.872 22.388s-5.33 10.445-8.722 10.19c-2.745-.208-9.755-.922-13.215-1.28-1.217-.125-1.995-.208-1.995-.208l-1.25-5.475c.74.045 1.638.075 2.63.095 5.267.1 13.107-.095 13.107-.095C173.175 82.1 182.38 62.46 182.38 62.46z"/><path class="cls-4" d="M158.57 93.758c-1.217-.125-1.995-.208-1.995-.208l-1.25-5.475c.74.045 1.638.075 2.63.095a13.3 13.3 0 01.615 5.588z"/><path class="cls-5" d="M155.325 88.075s-1.488-1.97-2.175-3.157-1.937-.625-1 2.188a18.789 18.789 0 00-5.125-.187c-1.75.375-1.5 4.438.375 6.25s9.176.383 9.176.383.299-3.307-1.251-5.477z"/><path class="cls-6" d="M200.405 113.464s-1.476 11.363-16.169 9.962c-13.11-1.25-10.915-12.068-10.915-12.068s18.258-.797 27.084 2.106z"/><path class="cls-4" d="M206.522 64.21l-2.8 22.54-1.027 8.282-2.29 18.43c-4.622 1.153-8.987 2.115-13.15 1.16-2.6-.6-4.635-.965-8.477-1.64a19.377 19.377 0 01-5.455-1.625l2.52-13.6.695-3.755 5.843-31.545 6.557-.675 8.685-.257z"/><path d="M203.722 86.75l-1.027 8.282a8.973 8.973 0 01-3.468 2.7c-4.16 1.608-20.89.242-23.385.027l.695-3.755c20.785 2.023 26.69-7.525 26.69-7.525z" fill="#82a6e1"/><path class="cls-6" d="M190.608 67.654l-7.157 26.063 1.887 6.847 3.914-6.01 2.036-26.752-.68-.148z"/><path class="cls-8" d="M189.686 65.871l1.01 3.366 3.183-3.954-2.556-1.689-1.637 2.277z"/><path class="cls-6" d="M182.835 119.884s-8.87 8.577-20.5 9.5a69.574 69.574 0 01-2.792 12.257c-1.975 5.688-10.234 25.679-10.234 25.679l-7.389-.225 12.98-46.815a5.546 5.546 0 013.9-3.872l14.765-3.986s9.744 3.197 9.27 7.462z"/><path class="cls-9" d="M146.967 174.666l-15.8.135c2.16-4.119 10.194-5.708 10.194-5.708l.333-1.346.422-1.379c2.177-.659 7.187.953 7.187.953z"/><path class="cls-10" d="M146.441 170.141c-1.671-1.368-5.075-1.049-5.075-1.049l.333-1.346c3.539.197 4.742 2.395 4.742 2.395z"/><path class="cls-8" d="M196.9 119.968s-10.913 12.643-21.566 11.805c0 0 .167 8.778-.333 14.778s-1.818 20.77-1.818 20.77l-6.245.261-1.654-39.727a4.589 4.589 0 012.326-4.186l13.622-7.7s15.068-.25 15.668 3.999z"/><path class="cls-9" d="M172.242 174.768l-15.782.033c2.16-4.119 10.129-5.723 10.129-5.723l.286-1.331.042-.662c2.177-.659 6.266.236 6.266.236z"/><path class="cls-10" d="M171.063 170.141c-1.671-1.368-4.473-1.064-4.473-1.064l.286-1.331c3.538.197 4.187 2.395 4.187 2.395z"/><path class="cls-4" d="M211.207 74.811c-2 9.235-12.179 21.062-12.179 21.062s-10.985 2.465-21.518-.81c-.6-.185-1.195-.388-1.787-.612a16.194 16.194 0 010-4.963s.748.235 1.787.453a12.771 12.771 0 004.025.3c4.4-.6 13.677-2.163 13.677-2.163s4.545-6.537 11.308-23.865c0-.003 6.687 1.36 4.687 10.598z"/><path class="cls-11" d="M177.51 89.94v5.123c-.6-.185-1.195-.388-1.787-.612a16.194 16.194 0 010-4.963s.747.235 1.787.452z"/><path class="cls-5" d="M175.722 89.488s-2.612-2.962-3.447-3.008c-1.031-.057-.428 1.977-.428 1.977s-2.322-1.164-3.916-.008c-1.452 1.053-.724 8.267 7.791 6v-4.961zM197.059 60.474a9.335 9.335 0 01-7.709 3.43l-.707-2.652-.9-3.375a14.233 14.233 0 011.836-2.664c1.321-1.509 3.29-3.04 5.687-2.726z"/><path class="cls-12" d="M194.371 53.706s-1.13 5.71-5.729 7.546l-.9-3.375a14.233 14.233 0 011.836-2.664z"/><path class="cls-5" d="M179.963 38.085l-1.2 17.18a3.917 3.917 0 003.937 4.2c4.387-.046 11.045-1.241 14.143-7.538 4.837-9.837-7.097-20.215-16.88-13.842z"/><path class="cls-5" d="M179.48 45l-2.08 4.8a1.1 1.1 0 00.577 1.451l1.038.445s1.649-1.265.465-6.696z"/><path class="cls-6" d="M180.559 39.494s-4.4-1.552-3.835-5.8c1.055-7.991 15.726-2.116 21.3.794 6.318 3.3 3.133 13.916 1.4 16.977a8.131 8.131 0 01-2.6 2.74c-1.125.749-2.844-.1-3.309-1.369s-1.058-2.688 1.091-5.72c1.578-2.228-.727-5.446-3.088-3.328s-3.285 1.708-2.546-1.077-4.235-4.311-8.413-3.217z"/><path class="cls-6" d="M188.835 43.991s-2.024 9.452-4.832 8.057a5.7 5.7 0 00-5.214.051c-2.033 9.312 3.172 9.1 5.36 8.444 3.606-1.085 3.766-6.378 4.038-9.033s2.687-7.183 2.687-7.183zm-8.409 12.594a3.912 3.912 0 01-1-2.777.521.521 0 01.384-.546 4.449 4.449 0 012.667.109c.537.359-.913 4.144-2.052 3.214z"/><path class="cls-11" d="M191.323 63.594l3.964 2.618s4.067-4.277 3.3-6.267-1.935-1.3-1.935-1.3-2.107 3.596-5.329 4.949zM188.524 60.768S186.8 62.5 186.8 63.873s2.309 2.8 2.309 2.8l2.215-3.081a10.838 10.838 0 01-2.033.137z"/><rect class="cls-2" x="9.419" y="123.056" width="40.5" height="8.75" rx="3.074" ry="3.074"/><path class="cls-2" d="M14.789 69.216l-7.429.868a8.326 8.326 0 00-7.22 9.779l7.3 39.627a8.326 8.326 0 008.5 6.811l18.11-.669a8.326 8.326 0 007.817-10.137L32.96 75.668a8.326 8.326 0 00-8.125-6.509h-9.079a8.326 8.326 0 00-.967.057z"/><path class="cls-3" d="M18.051 74.856l-5.96.7A6.679 6.679 0 006.3 83.4l5.859 31.79a6.679 6.679 0 006.815 5.464l14.528-.537a6.679 6.679 0 006.271-8.132l-7.145-31.953a6.679 6.679 0 00-6.518-5.221h-7.283a6.673 6.673 0 00-.776.045z"/><path class="cls-2" d="M56.179 174.801h-3.358l-8.002-32.023-2.743-10.972-.525-2.105 3.143-.863.742 2.968 2.74 10.972 8.003 32.023z"/><path class="cls-3" d="M48.176 142.778h-3.357l-2.743-10.972h3.36l2.74 10.972z"/><path class="cls-2" d="M17.623 129.701l-.525 2.105-2.742 10.972-8 32.023H2.998l8-32.023 2.74-10.972.743-2.968 3.142.863z"/><path class="cls-3" d="M17.098 131.806l-2.742 10.972h-3.358l2.74-10.972h3.36z"/><path class="cls-6" d="M32.488 62.46l1.718 11.611S47.4 86.732 50.793 86.479c5.663-.421 13.613-4.084 16.589-5.884 1.048-.633 1.715-1.039 1.715-1.039l-1.207-5.485c-.65.357-1.449.767-2.338 1.209-4.719 2.342-14.76 3.59-14.76 3.59-4.461-4.501-18.304-16.41-18.304-16.41z"/><path class="cls-13" d="M67.382 80.595c1.048-.633 1.715-1.039 1.715-1.039l-1.207-5.485c-.65.357-1.449.767-2.338 1.209a13.3 13.3 0 001.83 5.315z"/><path class="cls-5" d="M67.89 74.07s.5-2.416.619-3.784 1.485-1.392 1.838 1.551A18.794 18.794 0 0174.9 69.48c1.743-.408 3.251 3.372 2.33 5.812s-8.13 4.264-8.13 4.264-1.685-2.861-1.21-5.486z"/><path class="cls-6" d="M14.478 113.464s1.476 11.363 16.169 9.962c13.11-1.25 10.915-12.068 10.915-12.068s-18.262-.797-27.084 2.106z"/><path class="cls-6" d="M14.478 113.464c4.623 1.151 8.988 2.113 13.151 1.159 2.6-.6 4.636-.966 8.477-1.641a19.418 19.418 0 005.455-1.624L32.5 62.46l-6.557-.675-8.685-.257-8.9 2.684z"/><path class="cls-13" d="M27.63 114.623c2.477-.28 5.8-.5 8.477-1.641-1.442-7.523-7.689-40.232-10.16-51.2l-8.685-.257s8.825 37.055 10.368 53.098z"/><path fill="#107b85" d="M24.275 67.654l7.157 26.063-1.886 6.847-3.914-6.01-2.036-26.752.679-.148z"/><path fill="#079798" d="M25.198 65.871l-1.01 3.366-3.183-3.954 2.556-1.689 1.637 2.277z"/><path class="cls-6" d="M32.049 119.884s8.87 8.577 20.5 9.5a69.575 69.575 0 002.792 12.257c1.975 5.688 10.234 25.679 10.234 25.679l7.389-.225-12.985-46.815a5.546 5.546 0 00-3.9-3.872l-14.765-3.986s-9.739 3.197-9.265 7.462z"/><path class="cls-9" d="M67.917 174.666l15.8.135c-2.16-4.119-10.194-5.708-10.194-5.708l-.333-1.346-.422-1.379c-2.177-.659-7.187.953-7.187.953z"/><path class="cls-10" d="M68.443 170.141c1.671-1.368 5.075-1.049 5.075-1.049l-.333-1.346c-3.54.197-4.742 2.395-4.742 2.395z"/><path class="cls-8" d="M17.983 119.968s10.917 12.643 21.566 11.805c0 0-.167 8.778.333 14.778s1.818 20.77 1.818 20.77l6.245.261 1.655-39.727a4.589 4.589 0 00-2.326-4.186l-13.622-7.7s-15.069-.25-15.669 3.999z"/><path class="cls-9" d="M42.641 174.768l15.783.032c-2.16-4.119-10.129-5.723-10.129-5.723l-.286-1.331-.042-.662c-2.177-.659-6.266.236-6.266.236z"/><path class="cls-10" d="M43.821 170.141c1.671-1.368 4.473-1.064 4.473-1.064l-.286-1.331c-3.539.197-4.187 2.395-4.187 2.395z"/><path class="cls-6" d="M6.266 83.148a18.9 18.9 0 009.59 12.725s10.985 2.465 21.518-.81c.6-.185 1.2-.388 1.787-.612a16.194 16.194 0 000-4.963s-.747.235-1.787.453a12.771 12.771 0 01-4.025.3c-4.4-.6-13.677-2.163-13.677-2.163s-4.546-6.54-11.309-23.868c0 0-4.097 9.7-2.097 18.938z"/><path class="cls-13" d="M37.374 89.94v5.123c.6-.185 1.2-.388 1.787-.612a16.194 16.194 0 000-4.963s-.747.235-1.787.452z"/><path class="cls-5" d="M39.162 89.488s2.612-2.962 3.447-3.008c1.031-.057.428 1.977.428 1.977s2.322-1.164 3.916-.008c1.451 1.053.724 8.267-7.791 6v-4.961zM17.854 60.372a9.335 9.335 0 007.735 3.37l.687-2.657.875-3.385a14.232 14.232 0 00-1.857-2.649c-1.333-1.5-3.314-3.014-5.708-2.681z"/><path class="cls-12" d="M20.489 53.584s1.175 5.7 5.787 7.5l.875-3.384a14.232 14.232 0 00-1.857-2.649z"/><path class="cls-5" d="M34.776 37.85l1.332 17.17a3.917 3.917 0 01-3.9 4.226c-4.387-.012-11.055-1.155-14.2-7.428-4.918-9.793 6.935-20.264 16.768-13.968z"/><path class="cls-5" d="M35.312 44.76l2.12 4.788A1.1 1.1 0 0136.866 51l-1.035.453s-1.66-1.253-.519-6.693z"/><path class="cls-6" d="M16.726 33.49c-6.275 3.382-3.06 14.842-1.3 17.89a8.13 8.13 0 002.618 2.72c1.131.74 2.843-.122 3.3-1.394s1.037-2.7-1.135-5.711c-1.6-2.215.684-5.452 3.062-3.352s3.3 1.682 2.537-1.1S30 38.2 34.19 39.264c0 0 4.345-.337 3.669-5.476s-6.784-6.257-6.784-6.257 2.116 2.3-.429 3.4-9.57.214-13.92 2.559z"/><path class="cls-16" d="M23.561 63.594L19.6 66.213s-4.067-4.277-3.3-6.267 1.935-1.3 1.935-1.3 2.104 3.595 5.326 4.948zM26.36 60.768s1.721 1.734 1.725 3.105-2.309 2.8-2.309 2.8l-2.215-3.081a10.839 10.839 0 002.033.137z"/><path class="cls-9" d="M47.899 102.045h5.443v72.444h-5.443z"/><path class="cls-10" d="M47.899 102.045h5.443v12.58h-5.443z"/><path class="cls-9" d="M161.642 102.045h5.443v72.444h-5.443z"/><path class="cls-10" d="M161.642 102.045h5.443v12.58h-5.443z"/><path class="cls-9" d="M36.361 95.043h140.642v7.002H36.361z"/><path class="cls-10" d="M53.343 121.248h108.299v3.261H53.343zM53.343 138.241h108.299v3.261H53.343z"/><path class="cls-17" d="M110.255 29.664a14.133 14.133 0 1114.133-14.133 14.149 14.149 0 01-14.133 14.133z"/><path class="cls-6" d="M110.255 28.267a14.133 14.133 0 1114.133-14.133 14.149 14.149 0 01-14.133 14.133z"/><circle class="cls-16" cx="110.255" cy="14.133" r="12.054"/><path class="cls-6" d="M110.255 5.851a.4.4 0 01-.4-.4V3.229a.4.4 0 01.791 0v2.226a.4.4 0 01-.391.396zM110.255 25.175a.4.4 0 01-.4-.4v-2.222a.4.4 0 01.791 0v2.226a.4.4 0 01-.391.396zM102.443 14a.4.4 0 01-.4.4h-2.221a.4.4 0 010-.791h2.226a.4.4 0 01.395.391zM121.768 14a.4.4 0 01-.4.4h-2.226a.4.4 0 010-.791h2.226a.4.4 0 01.4.391zM104.643 8.481a.4.4 0 01-.56 0l-1.573-1.574a.4.4 0 01.56-.56l1.574 1.574a.4.4 0 01-.001.56zM118.308 22.145a.4.4 0 01-.56 0l-1.574-1.574a.4.4 0 01.56-.56l1.574 1.574a.4.4 0 010 .56zM104.885 19.769a.4.4 0 010 .56l-1.574 1.571a.4.4 0 01-.56-.56l1.574-1.574a.4.4 0 01.56.003zM118.55 6.105a.4.4 0 010 .56l-1.574 1.574a.4.4 0 11-.56-.56l1.574-1.574a.4.4 0 01.56 0z"/><path class="cls-17" d="M122.308 14.133q0 .526-.045 1.04a12.053 12.053 0 00-24.017 0q-.046-.513-.045-1.04a12.053 12.053 0 0124.107 0z"/><path class="cls-18" d="M110.574 14.4l3.416 8.235-3.991-7.839.575-.396z"/><circle class="cls-6" cx="110.339" cy="14.004" r="1.28"/><path class="cls-6" d="M109.241 14.004l-1.969-4.885 3.067 4.282-1.098.603zM110.435 13.303l7.685 3.229-8.121-1.88.436-1.349z"/><path class="cls-8" d="M109.4 77.948v5.69H83.62a1.469 1.469 0 01-1.469-1.469v-2.752a1.469 1.469 0 011.469-1.469h25.78z"/><path class="cls-13" d="M109.4 78.668v4.25H86.009a1.357 1.357 0 01-1.357-1.358v-1.532a1.358 1.358 0 011.357-1.36H109.4z"/><path class="cls-19" d="M87.027 79.53h22.375v.375H87.027zM87.027 80.605h22.375v.375H87.027zM87.027 81.68h22.375v.375H87.027z"/><path class="cls-18" d="M109.4 83.638v5.69H83.62a1.469 1.469 0 01-1.469-1.469v-2.752a1.469 1.469 0 011.469-1.469h25.78z"/><path class="cls-13" d="M109.4 84.358v4.25H86.009a1.357 1.357 0 01-1.357-1.358v-1.532a1.358 1.358 0 011.357-1.36H109.4z"/><path class="cls-19" d="M87.027 85.22h22.375v.375H87.027zM87.027 86.295h22.375v.375H87.027zM87.027 87.37h22.375v.375H87.027z"/><path d="M109.4 89.328v5.69H83.62a1.469 1.469 0 01-1.469-1.469V90.8a1.469 1.469 0 011.469-1.469h25.78z" fill="#00b3d8"/><path class="cls-13" d="M109.4 90.048V94.3H86.009a1.357 1.357 0 01-1.357-1.358v-1.534a1.358 1.358 0 011.357-1.36H109.4z"/><path class="cls-19" d="M87.027 90.91h22.375v.375H87.027zM87.027 91.985h22.375v.375H87.027zM87.027 93.06h22.375v.375H87.027z"/><path class="cls-8" d="M131.55 84.5v-3.55h-10.762V95.2h10.762v-2.182a4.258 4.258 0 000-8.518zm0 6.765v-5.012a2.507 2.507 0 010 5.015z"/></svg>